<svg width="150" height="120" viewBox="0 0 150 120" fill="none" xmlns="http://www.w3.org/2000/svg">
<path d="M47.7667 71.9434C51.2533 65.2382 58.1825 61.0314 65.74 61.0314H68.2566C81.9498 61.0314 91.836 74.1378 88.0741 87.3041C84.947 98.2491 73.5393 104.587 62.5944 101.46L60.1747 100.768C47.8523 97.2475 41.8542 83.3134 47.7667 71.9434Z" fill="#C4C4C4"/>
<path fill-rule="evenodd" clip-rule="evenodd" d="M77.1895 94.7073C77.1895 94.7073 77.1894 94.7073 77.1895 94.7073L77.2188 94.7337L77.3106 94.816C77.392 94.8889 77.5133 94.9971 77.6711 95.1372C77.9869 95.4173 78.4485 95.8243 79.0288 96.3289C80.1899 97.3386 81.8242 98.7374 83.7147 100.292C87.5154 103.417 92.279 107.111 96.3015 109.559C102.044 113.053 108.571 113.984 114.934 110.489C119.451 108.007 121.721 102.848 120.806 97.6438C120.259 94.5369 117.97 91.5195 115.123 89.6024C112.123 87.5824 108.171 87.6571 104.965 89.6829C101.65 91.777 100.063 95.5291 101.335 98.5317C101.987 100.071 103.433 101.215 105.18 101.682C106.927 102.149 108.761 101.88 110.11 100.871C110.98 100.222 112.21 100.397 112.859 101.264C113.508 102.13 113.33 103.36 112.46 104.01C109.994 105.854 106.873 106.197 104.157 105.472C101.441 104.746 98.9141 102.894 97.7166 100.067C95.4599 94.7397 98.4997 89.1303 102.87 86.3692C107.257 83.5976 112.902 83.371 117.324 86.3483C120.811 88.696 123.9 92.5465 124.675 96.9567C125.854 103.66 122.949 110.559 116.822 113.925C108.955 118.246 100.909 116.961 94.2516 112.91C89.9815 110.312 85.0423 106.471 81.2132 103.322C79.2889 101.74 77.6266 100.317 76.4449 99.2898C75.8538 98.7758 75.3824 98.3602 75.058 98.0723C74.8958 97.9284 74.7702 97.8164 74.6848 97.7399L74.5872 97.6524L74.5531 97.6217C74.5529 97.6216 74.5522 97.6209 75.8709 96.1641L74.5522 97.6209C73.7482 96.8956 73.6867 95.6554 74.4149 94.8508C75.1432 94.0463 76.3854 93.982 77.1895 94.7073Z" fill="#AEB5BC"/>
<path d="M95.8306 82.3667C93.9102 79.6663 90.1642 79.0339 87.4637 80.9544L71.4678 92.3298C68.7673 94.2503 68.135 97.9963 70.0554 100.697L70.7327 101.649C72.6532 104.35 76.3991 104.982 79.0996 103.062L95.0956 91.6861C97.796 89.7656 98.4284 86.0196 96.5079 83.3191L95.8306 82.3667Z" fill="#9BA1A6"/>
<path d="M91.2744 69.7369C89.6596 67.4661 86.5096 66.9344 84.2389 68.5493L72.7117 76.7468C70.4409 78.3616 69.9092 81.5116 71.524 83.7823C73.1389 86.0531 76.2888 86.5849 78.5596 84.97L90.0868 76.7725C92.3576 75.1576 92.8893 72.0077 91.2744 69.7369Z" fill="#9BA1A6"/>
<path fill-rule="evenodd" clip-rule="evenodd" d="M122.918 10.8539L131 14.5232L129.165 18.5644L125.124 16.7298C129.165 18.5644 129.165 18.565 129.165 18.5657L129.161 18.5741L129.151 18.5954L129.116 18.672C129.086 18.7379 129.042 18.8335 128.985 18.9571C128.87 19.2044 128.702 19.5641 128.483 20.0243C128.046 20.9444 127.407 22.2671 126.591 23.896C124.961 27.1511 122.616 31.6428 119.755 36.5957C114.104 46.3809 106.184 58.4217 97.5617 66.0916C93.6074 69.6091 89.3694 71.5295 85.9514 73.0783C85.3698 73.3418 84.812 73.5946 84.2833 73.8426C80.5758 75.5822 77.8217 77.2335 75.6057 80.6997C72.5503 85.4788 71.9063 89.8247 72.2013 94.736C72.3546 97.287 72.759 99.9474 73.2438 102.98C73.2795 103.204 73.3157 103.43 73.3522 103.657C73.8008 106.455 74.2941 109.532 74.6188 112.824L75.0545 117.241L66.221 118.112L65.7854 113.695C65.4882 110.682 65.0357 107.858 64.5813 105.022C64.5471 104.808 64.5129 104.595 64.4787 104.381C63.9998 101.385 63.5241 98.3159 63.341 95.2682C62.9634 88.9821 63.8222 82.6521 68.1271 75.9185C71.7051 70.322 76.3053 67.7811 80.5129 65.8069C81.1868 65.4907 81.8403 65.192 82.4765 64.9011C85.8807 63.3448 88.7893 62.0151 91.6621 59.4595C99.1575 52.7919 106.494 41.8098 112.069 32.1564C114.822 27.3901 117.083 23.0587 118.655 19.9204C119.44 18.3526 120.052 17.0861 120.465 16.2162C120.672 15.7813 120.829 15.4458 120.933 15.2216C120.985 15.1095 121.023 15.0252 121.049 14.9703L121.076 14.9102L121.083 14.8952L122.918 10.8539Z" fill="#877171"/>
<path d="M40.4755 79.733C42.396 77.0326 46.142 76.4002 48.8424 78.3207L64.8384 89.6961C67.5389 91.6166 68.1712 95.3626 66.2508 98.063L65.5735 99.0154C63.653 101.716 59.907 102.348 57.2066 100.428L41.2106 89.0524C38.5101 87.1319 37.8778 83.3859 39.7982 80.6854L40.4755 79.733Z" fill="#9BA1A6"/>
<path d="M51.5637 69.7369C53.1786 67.4661 56.3285 66.9344 58.5993 68.5493L70.1264 76.7468C72.3972 78.3616 72.9289 81.5116 71.3141 83.7823C69.6992 86.0531 66.5493 86.5849 64.2785 84.97L52.7513 76.7725C50.4806 75.1576 49.9488 72.0077 51.5637 69.7369Z" fill="#9BA1A6"/>
<path d="M73.6248 67.58C73.8075 67.5935 73.9932 67.6006 74.1825 67.6006C76.2367 67.6006 77.8157 66.9958 79.3299 66.4157C80.7248 65.8814 82.0646 65.3682 83.6702 65.3682C86.6372 65.3682 90.3774 64.0481 93.1855 63.057C94.6032 62.5567 95.7833 62.1401 96.5065 62.0196C96.8893 61.6952 97.2784 61.3669 97.6721 61.0348C104.724 55.0864 113.25 47.8947 113.25 38.8754C113.25 20.2368 96.0085 9 74.7406 9C74.3674 9 73.9954 9.00346 73.6248 9.01036C73.2541 9.00346 72.8822 9 72.509 9C51.2411 9 34 20.2368 34 38.8754C34 47.8947 42.5257 55.0864 49.5775 61.0348C49.9712 61.3669 50.3603 61.6952 50.743 62.0196C51.4663 62.1401 52.6464 62.5566 54.064 63.057C56.8722 64.0481 60.6124 65.3682 63.5794 65.3682C65.1849 65.3682 66.5248 65.8814 67.9196 66.4157C69.4339 66.9958 71.0129 67.6006 73.0671 67.6006C73.2564 67.6006 73.4421 67.5935 73.6248 67.58Z" fill="#9BA1A6"/>
<path d="M76.4166 43.046C76.4166 54.1423 67.4213 63.1376 56.325 63.1376C45.2287 63.1376 36.2333 54.1423 36.2333 43.046C36.2333 31.9497 45.2287 22.9544 56.325 22.9544C67.4213 22.9544 76.4166 31.9497 76.4166 43.046Z" fill="#C4C4C4"/>
<path d="M73.0679 43.0443C73.0679 52.2912 65.5718 59.7873 56.3249 59.7873C47.078 59.7873 39.5819 52.2912 39.5819 43.0443C39.5819 33.7974 47.078 26.3013 56.3249 26.3013C65.5718 26.3013 73.0679 33.7974 73.0679 43.0443Z" fill="#FFD8D3"/>
<path d="M69.7194 43.0441C69.7194 50.4416 63.7225 56.4385 56.325 56.4385C48.9275 56.4385 42.9306 50.4416 42.9306 43.0441C42.9306 35.6465 48.9275 29.6497 56.325 29.6497C63.7225 29.6497 69.7194 35.6465 69.7194 43.0441Z" fill="#6FBF4A"/>
<path d="M66.3707 43.0442C66.3707 48.5924 61.873 53.0901 56.3249 53.0901C50.7767 53.0901 46.279 48.5924 46.279 43.0442C46.279 37.4961 50.7767 32.9984 56.3249 32.9984C61.873 32.9984 66.3707 37.4961 66.3707 43.0442Z" fill="#222529"/>
<path d="M64.1388 35.2308C64.1388 36.4638 63.1393 37.4632 61.9064 37.4632C60.6735 37.4632 59.674 36.4638 59.674 35.2308C59.674 33.9979 60.6735 32.9984 61.9064 32.9984C63.1393 32.9984 64.1388 33.9979 64.1388 35.2308Z" fill="white"/>
<path d="M113.249 43.044C113.249 54.1403 104.254 63.1357 93.1578 63.1357C82.0615 63.1357 73.0662 54.1403 73.0662 43.044C73.0662 31.9477 82.0615 22.9524 93.1578 22.9524C104.254 22.9524 113.249 31.9477 113.249 43.044Z" fill="#C4C4C4"/>
<path d="M109.901 43.0441C109.901 52.2911 102.405 59.7872 93.158 59.7872C83.9111 59.7872 76.415 52.2911 76.415 43.0441C76.415 33.7972 83.9111 26.3011 93.158 26.3011C102.405 26.3011 109.901 33.7972 109.901 43.0441Z" fill="#FFD8D3"/>
<path d="M71.0142 53.0234C70.917 51.8574 71.8372 50.8573 73.0073 50.8573H76.4735C77.6436 50.8573 78.5638 51.8574 78.4666 53.0234L78.089 57.5545H71.3918L71.0142 53.0234Z" fill="#C4C4C4"/>
<path d="M106.553 43.044C106.553 50.4415 100.556 56.4384 93.1581 56.4384C85.7606 56.4384 79.7637 50.4415 79.7637 43.044C79.7637 35.6464 85.7606 29.6495 93.1581 29.6495C100.556 29.6495 106.553 35.6464 106.553 43.044Z" fill="#6FBF4A"/>
<path d="M103.205 43.0441C103.205 48.5923 98.7071 53.0899 93.159 53.0899C87.6108 53.0899 83.1132 48.5923 83.1132 43.0441C83.1132 37.496 87.6108 32.9983 93.159 32.9983C98.7071 32.9983 103.205 37.496 103.205 43.0441Z" fill="#222529"/>
<path d="M100.973 35.2307C100.973 36.4636 99.9734 37.4631 98.7405 37.4631C97.5076 37.4631 96.5081 36.4636 96.5081 35.2307C96.5081 33.9978 97.5076 32.9983 98.7405 32.9983C99.9734 32.9983 100.973 33.9978 100.973 35.2307Z" fill="white"/>
<path d="M76.7383 60.2583C75.9156 61.9037 73.5675 61.9038 72.7448 60.2584L71.3929 57.5546H78.0901L76.7383 60.2583Z" fill="#FFD8D3"/>
<path d="M44.2261 12.9067C46.9191 15.057 48.5122 17.3715 48.5122 17.3715C48.5122 17.3715 46.5935 18.9493 45.1636 20.162C43.7531 21.3582 40.8775 25.1849 40.8775 25.1849C40.8775 25.1849 39.7613 24.0687 36.4127 19.6039C33.0641 15.1391 34.1803 9.55812 34.1803 9.55812C34.1803 9.55812 40.9945 10.3265 44.2261 12.9067Z" fill="#FFD8D3"/>
<path d="M104.143 12.9067C101.45 15.057 99.857 17.3715 99.857 17.3715C99.857 17.3715 101.776 18.9493 103.206 20.162C104.616 21.3582 107.492 25.1849 107.492 25.1849C107.492 25.1849 108.608 24.0687 111.956 19.6039C115.305 15.1391 114.189 9.55812 114.189 9.55812C114.189 9.55812 107.375 10.3265 104.143 12.9067Z" fill="#FFD8D3"/>
<path d="M76.002 81.3706C76.356 81.5 76.538 81.8918 76.4087 82.2458C76.2793 82.5997 75.8875 82.7818 75.5336 82.6524L69.1247 80.3102C68.7707 80.1808 68.5886 79.789 68.718 79.4351C68.8474 79.0811 69.2392 78.899 69.5931 79.0284L76.002 81.3706Z" fill="#FFD8D3"/>
<path d="M75.3769 83.0796C75.7309 83.209 75.9129 83.6008 75.7836 83.9548C75.6542 84.3087 75.2624 84.4908 74.9085 84.3614L68.4995 82.0192C68.1456 81.8898 67.9635 81.498 68.0929 81.1441C68.2222 80.7901 68.614 80.608 68.968 80.7374L75.3769 83.0796Z" fill="#FFD8D3"/>
<path d="M74.7518 84.7887C75.1058 84.918 75.2879 85.3098 75.1585 85.6638C75.0291 86.0178 74.6373 86.1998 74.2834 86.0705L67.8745 83.7282C67.5205 83.5989 67.3385 83.2071 67.4678 82.8531C67.5972 82.4992 67.989 82.3171 68.3429 82.4464L74.7518 84.7887Z" fill="#FFD8D3"/>
<path d="M74.1268 86.4978C74.4807 86.6272 74.6628 87.019 74.5334 87.3729C74.4041 87.7269 74.0123 87.909 73.6583 87.7796L67.2494 85.4373C66.8955 85.308 66.7134 84.9162 66.8427 84.5622C66.9721 84.2083 67.3639 84.0262 67.7179 84.1556L74.1268 86.4978Z" fill="#FFD8D3"/>
<path d="M71.601 95.6896C72.0489 95.8533 72.2793 96.3491 72.1156 96.797C71.9519 97.2449 71.4561 97.4753 71.0082 97.3116L62.898 94.3476C62.4501 94.1839 62.2197 93.6881 62.3834 93.2402C62.5471 92.7923 63.0429 92.5619 63.4908 92.7256L71.601 95.6896Z" fill="#FFD8D3"/>
<path d="M70.8083 97.8525C71.2562 98.0162 71.4866 98.512 71.3229 98.96C71.1592 99.4079 70.6634 99.6383 70.2155 99.4746L62.1053 96.5106C61.6574 96.3469 61.427 95.8511 61.5907 95.4031C61.7544 94.9552 62.2502 94.7248 62.6981 94.8885L70.8083 97.8525Z" fill="#FFD8D3"/>
<path d="M70.0187 100.015C70.4666 100.179 70.697 100.675 70.5333 101.123C70.3696 101.571 69.8738 101.801 69.4259 101.637L61.3157 98.6732C60.8678 98.5095 60.6374 98.0137 60.8011 97.5658C60.9648 97.1179 61.4606 96.8875 61.9085 97.0512L70.0187 100.015Z" fill="#FFD8D3"/>
<path d="M69.229 102.178C69.677 102.342 69.9074 102.837 69.7437 103.285C69.58 103.733 69.0842 103.964 68.6362 103.8L60.5261 100.836C60.0782 100.672 59.8478 100.176 60.0114 99.7285C60.1751 99.2806 60.671 99.0502 61.1189 99.2139L69.229 102.178Z" fill="#FFD8D3"/>
</svg>
