<svg width="270" height="30" viewBox="0 0 270 30" fill="none" xmlns="http://www.w3.org/2000/svg">
<path d="M18.7857 19.3371H8.73044L6.86206 24H0L10.4969 0H17.1212L27.652 24H20.6541L18.7857 19.3371ZM16.8154 14.3314L13.7581 6.65143L10.7007 14.3314H16.8154Z" fill="#6FBF4A"/>
<path d="M40.4295 0C42.581 0 44.4493 0.365714 46.0346 1.09714C47.6199 1.80571 48.8429 2.83429 49.7035 4.18286C50.564 5.50857 50.9943 7.07429 50.9943 8.88C50.9943 10.6857 50.564 12.2514 49.7035 13.5771C48.8429 14.9029 47.6199 15.9314 46.0346 16.6629C44.4493 17.3714 42.581 17.7257 40.4295 17.7257H36.2851V24H29.5589V0H40.4295ZM40.0218 12.3771C41.4033 12.3771 42.4451 12.08 43.1471 11.4857C43.8492 10.8686 44.2002 10 44.2002 8.88C44.2002 7.76 43.8492 6.89143 43.1471 6.27429C42.4451 5.65714 41.4033 5.34857 40.0218 5.34857H36.2851V12.3771H40.0218Z" fill="#6FBF4A"/>
<path d="M54.2738 0H61V24H54.2738V0Z" fill="#6FBF4A"/>
<path d="M79.5233 23.7133C77.3435 23.7133 75.3753 23.2265 73.6188 22.253C71.8834 21.2795 70.5078 19.9357 69.492 18.2214C68.4973 16.5072 68 14.5814 68 12.4439C68 10.3064 68.4973 8.3806 69.492 6.66638C70.5078 4.95217 71.8834 3.60831 73.6188 2.63481C75.3753 1.66131 77.3435 1.17455 79.5233 1.17455C81.1317 1.17455 82.6131 1.43909 83.9676 1.96817C85.322 2.47609 86.4754 3.23796 87.4277 4.25379L86.4119 5.30136C84.6342 3.54482 82.3592 2.66655 79.5868 2.66655C77.7245 2.66655 76.0314 3.08982 74.5077 3.93634C72.9839 4.78287 71.7882 5.95742 70.9205 7.46C70.0528 8.94142 69.619 10.6027 69.619 12.4439C69.619 14.2851 70.0528 15.957 70.9205 17.4596C71.7882 18.941 72.9839 20.105 74.5077 20.9515C76.0314 21.798 77.7245 22.2213 79.5868 22.2213C82.338 22.2213 84.613 21.3324 86.4119 19.5547L87.4277 20.6023C86.4754 21.6181 85.3114 22.3906 83.9358 22.9197C82.5814 23.4487 81.1106 23.7133 79.5233 23.7133Z" fill="white"/>
<path d="M92.3425 0H93.9297V23.5546H92.3425V0Z" fill="white"/>
<path d="M106.207 6.85685C108.26 6.85685 109.836 7.38593 110.937 8.44409C112.037 9.48108 112.587 11.0154 112.587 13.0471V23.5546H111.064V20.6023C110.535 21.5758 109.762 22.3377 108.746 22.8879C107.73 23.417 106.514 23.6815 105.096 23.6815C103.254 23.6815 101.794 23.2477 100.715 22.38C99.6567 21.5123 99.1276 20.3695 99.1276 18.9516C99.1276 17.576 99.6144 16.4649 100.588 15.6184C101.583 14.7507 103.159 14.3169 105.318 14.3169H111V12.9836C111 11.4387 110.577 10.2641 109.73 9.45991C108.905 8.65572 107.688 8.25362 106.08 8.25362C104.979 8.25362 103.921 8.44409 102.905 8.82502C101.911 9.20596 101.064 9.71387 100.366 10.3488L99.5721 9.20596C100.397 8.46525 101.392 7.89384 102.556 7.49174C103.72 7.06848 104.937 6.85685 106.207 6.85685ZM105.318 22.38C106.693 22.38 107.857 22.0626 108.81 21.4277C109.783 20.7928 110.513 19.8722 111 18.6659V15.5549H105.35C103.72 15.5549 102.535 15.8512 101.794 16.4437C101.075 17.0363 100.715 17.8511 100.715 18.8881C100.715 19.9674 101.117 20.8245 101.921 21.4594C102.725 22.0731 103.858 22.38 105.318 22.38Z" fill="white"/>
<path d="M120.651 10.6027C121.159 9.39643 121.952 8.47583 123.032 7.84094C124.111 7.18488 125.423 6.85685 126.968 6.85685V8.41234L126.587 8.3806C124.746 8.3806 123.307 8.96258 122.27 10.1266C121.233 11.2694 120.714 12.8672 120.714 14.92V23.5546H119.127V6.98383H120.651V10.6027Z" fill="white"/>
<path d="M131.341 6.98383H132.929V23.5546H131.341V6.98383ZM132.135 2.95226C131.775 2.95226 131.468 2.83586 131.214 2.60306C130.96 2.34911 130.833 2.04224 130.833 1.68247C130.833 1.3227 130.96 1.01583 131.214 0.761872C131.468 0.507915 131.775 0.380937 132.135 0.380937C132.495 0.380937 132.802 0.507915 133.056 0.761872C133.309 0.994667 133.436 1.29095 133.436 1.65072C133.436 2.0105 133.309 2.31736 133.056 2.57132C132.802 2.82528 132.495 2.95226 132.135 2.95226Z" fill="white"/>
<path d="M147.84 22.507C147.438 22.8879 146.93 23.1842 146.317 23.3958C145.724 23.5863 145.1 23.6815 144.444 23.6815C143.005 23.6815 141.894 23.29 141.11 22.507C140.327 21.7028 139.936 20.5917 139.936 19.1738V8.34885H136.888V6.98383H139.936V3.36494H141.523V6.98383H146.793V8.34885H141.523V19.0151C141.523 20.0944 141.777 20.9197 142.285 21.4911C142.814 22.0414 143.587 22.3165 144.602 22.3165C145.639 22.3165 146.496 22.0096 147.174 21.3959L147.84 22.507Z" fill="white"/>
<path d="M165.258 6.98383L156.75 25.8084C156.115 27.2687 155.375 28.3057 154.528 28.9194C153.703 29.5331 152.719 29.84 151.576 29.84C150.814 29.84 150.094 29.713 149.417 29.4591C148.761 29.2051 148.2 28.8348 147.735 28.348L148.528 27.1417C149.375 28.0094 150.401 28.4432 151.608 28.4432C152.412 28.4432 153.1 28.221 153.671 27.7766C154.242 27.3322 154.771 26.5703 155.258 25.491L156.147 23.4911L148.687 6.98383H150.369L157.004 21.8086L163.639 6.98383H165.258Z" fill="white"/>
</svg>
