<svg width="270" height="30" viewBox="0 0 270 30" fill="none" xmlns="http://www.w3.org/2000/svg">
<path d="M5.73737 11.7822H15.809V16.6096H5.73737V11.7822ZM6.17391 24.182H0V2.0959H17.1186V6.92328H6.17391V24.182Z" fill="#F0AD42"/>
<path d="M30.0776 24.6237C26.8555 24.6237 24.3402 23.7297 22.5317 21.9418C20.7232 20.1539 19.8189 17.6193 19.8189 14.3379V2.0959H25.9928V14.1486C25.9928 16.0417 26.3566 17.3984 27.0842 18.2187C27.8325 19.0391 28.8511 19.4492 30.14 19.4492C31.4288 19.4492 32.437 19.0391 33.1645 18.2187C33.8921 17.3984 34.2559 16.0417 34.2559 14.1486V2.0959H40.3363V14.3379C40.3363 17.6193 39.432 20.1539 37.6235 21.9418C35.815 23.7297 33.2997 24.6237 30.0776 24.6237Z" fill="#F0AD42"/>
<path d="M44.5187 24.182V2.0959H49.6013L61.6373 16.7989H59.2363V2.0959H65.2855V24.182H60.2029L48.1669 9.47896H50.5679V24.182H44.5187Z" fill="#F0AD42"/>
<path d="M80.5227 24.6237C78.7973 24.6237 77.1967 24.3503 75.7208 23.8034C74.2656 23.2354 72.9976 22.4361 71.9167 21.4054C70.8565 20.3748 70.025 19.1653 69.4221 17.777C68.8193 16.3677 68.5179 14.8217 68.5179 13.1389C68.5179 11.4562 68.8193 9.92068 69.4221 8.53241C70.025 7.12311 70.8565 5.90312 71.9167 4.87243C72.9976 3.84175 74.2656 3.05296 75.7208 2.50607C77.1967 1.93814 78.7973 1.65417 80.5227 1.65417C82.5391 1.65417 84.3372 2.01176 85.9171 2.72693C87.5177 3.4421 88.8481 4.47278 89.9083 5.81898L85.9795 9.41585C85.2727 8.57448 84.4931 7.93293 83.6408 7.49121C82.8093 7.04949 81.8739 6.82863 80.8345 6.82863C79.9407 6.82863 79.1195 6.97587 78.3712 7.27035C77.6228 7.56483 76.9784 7.99603 76.4379 8.56396C75.9183 9.11086 75.5025 9.77344 75.1907 10.5517C74.8997 11.33 74.7542 12.1924 74.7542 13.1389C74.7542 14.0855 74.8997 14.9479 75.1907 15.7262C75.5025 16.5044 75.9183 17.1775 76.4379 17.7455C76.9784 18.2924 77.6228 18.713 78.3712 19.0075C79.1195 19.302 79.9407 19.4492 80.8345 19.4492C81.8739 19.4492 82.8093 19.2284 83.6408 18.7867C84.4931 18.3449 85.2727 17.7034 85.9795 16.862L89.9083 20.4589C88.8481 21.7841 87.5177 22.8147 85.9171 23.5509C84.3372 24.2661 82.5391 24.6237 80.5227 24.6237Z" fill="#F0AD42"/>
<path d="M97.1244 24.182V7.04949H90.4204V2.0959H109.971V7.04949H103.298V24.182H97.1244Z" fill="#F0AD42"/>
<path d="M112.271 24.182V2.0959H118.445V24.182H112.271Z" fill="#F0AD42"/>
<path d="M133.845 24.6237C132.098 24.6237 130.487 24.3397 129.011 23.7718C127.536 23.2039 126.247 22.4046 125.145 21.3739C124.064 20.3222 123.222 19.1022 122.619 17.7139C122.016 16.3256 121.715 14.8007 121.715 13.1389C121.715 11.4772 122.016 9.95223 122.619 8.56396C123.222 7.17569 124.064 5.96622 125.145 4.93554C126.247 3.88382 127.536 3.07399 129.011 2.50607C130.487 1.93814 132.098 1.65417 133.845 1.65417C135.611 1.65417 137.223 1.93814 138.678 2.50607C140.154 3.07399 141.432 3.88382 142.513 4.93554C143.594 5.96622 144.436 7.17569 145.039 8.56396C145.662 9.95223 145.974 11.4772 145.974 13.1389C145.974 14.8007 145.662 16.3362 145.039 17.7455C144.436 19.1337 143.594 20.3432 142.513 21.3739C141.432 22.4046 140.154 23.2039 138.678 23.7718C137.223 24.3397 135.611 24.6237 133.845 24.6237ZM133.845 19.4492C134.676 19.4492 135.445 19.302 136.152 19.0075C136.88 18.713 137.503 18.2924 138.023 17.7455C138.563 17.1775 138.979 16.5044 139.27 15.7262C139.582 14.9479 139.738 14.0855 139.738 13.1389C139.738 12.1714 139.582 11.3089 139.27 10.5517C138.979 9.77344 138.563 9.11086 138.023 8.56396C137.503 7.99603 136.88 7.56483 136.152 7.27035C135.445 6.97587 134.676 6.82863 133.845 6.82863C133.013 6.82863 132.233 6.97587 131.506 7.27035C130.799 7.56483 130.176 7.99603 129.635 8.56396C129.115 9.11086 128.7 9.77344 128.388 10.5517C128.097 11.3089 127.951 12.1714 127.951 13.1389C127.951 14.0855 128.097 14.9479 128.388 15.7262C128.7 16.5044 129.115 17.1775 129.635 17.7455C130.176 18.2924 130.799 18.713 131.506 19.0075C132.233 19.302 133.013 19.4492 133.845 19.4492Z" fill="#F0AD42"/>
<path d="M149.208 24.182V2.0959H154.29L166.326 16.7989H163.925V2.0959H169.974V24.182H164.892L152.856 9.47896H155.257V24.182H149.208Z" fill="#F0AD42"/>
<path d="M189.807 22.9041C188.282 22.9041 186.864 22.65 185.555 22.1417C184.265 21.6139 183.14 20.8809 182.183 19.9425C181.225 19.0042 180.482 17.9095 179.954 16.6584C179.426 15.3877 179.162 13.9998 179.162 12.4945C179.162 10.9893 179.426 9.61113 179.954 8.36002C180.482 7.08937 181.225 5.98488 182.183 5.04655C183.16 4.10822 184.294 3.38492 185.584 2.87666C186.874 2.34885 188.282 2.08494 189.807 2.08494C191.253 2.08494 192.602 2.31953 193.853 2.78869C195.124 3.25786 196.209 3.97138 197.108 4.92925L196.17 5.89691C195.29 5.03677 194.312 4.42099 193.237 4.04957C192.182 3.6586 191.058 3.46311 189.865 3.46311C188.555 3.46311 187.334 3.68792 186.2 4.13754C185.086 4.58716 184.108 5.22248 183.268 6.04352C182.447 6.86456 181.801 7.82244 181.332 8.91716C180.883 10.0119 180.658 11.2043 180.658 12.4945C180.658 13.7847 180.883 14.9772 181.332 16.0719C181.801 17.1666 182.447 18.1245 183.268 18.9456C184.108 19.7666 185.086 20.4019 186.2 20.8515C187.334 21.3011 188.555 21.526 189.865 21.526C191.058 21.526 192.182 21.3402 193.237 20.9688C194.312 20.5779 195.29 19.9425 196.17 19.0628L197.108 20.0305C196.209 20.9884 195.124 21.7117 193.853 22.2004C192.602 22.6695 191.253 22.9041 189.807 22.9041Z" fill="white"/>
<path d="M201.648 22.7575V1H203.114V22.7575H201.648Z" fill="white"/>
<path d="M218.941 22.7575V19.2681L218.882 18.7403V12.993C218.882 11.566 218.491 10.481 217.709 9.73819C216.947 8.99535 215.823 8.62393 214.337 8.62393C213.281 8.62393 212.294 8.80964 211.375 9.18106C210.476 9.53293 209.704 9.99233 209.059 10.5592L208.326 9.50361C209.088 8.81941 210.007 8.2916 211.082 7.92018C212.157 7.52921 213.281 7.33372 214.454 7.33372C216.35 7.33372 217.807 7.81266 218.823 8.77054C219.84 9.72842 220.348 11.1555 220.348 13.0517V22.7575H218.941ZM213.428 22.8748C212.294 22.8748 211.307 22.6989 210.466 22.347C209.645 21.9756 209.01 21.4575 208.56 20.7929C208.13 20.1282 207.915 19.3658 207.915 18.5057C207.915 17.7238 208.091 17.02 208.443 16.3945C208.814 15.7494 209.42 15.2313 210.261 14.8404C211.102 14.4298 212.226 14.2246 213.633 14.2246H219.263V15.3682H213.662C212.079 15.3682 210.965 15.6614 210.32 16.2479C209.694 16.8343 209.381 17.5674 209.381 18.4471C209.381 19.4245 209.753 20.2064 210.496 20.7929C211.238 21.3793 212.284 21.6726 213.633 21.6726C214.923 21.6726 216.008 21.3793 216.888 20.7929C217.787 20.2064 218.452 19.3561 218.882 18.2418L219.292 19.2388C218.882 20.353 218.178 21.2425 217.181 21.9072C216.204 22.5523 214.953 22.8748 213.428 22.8748Z" fill="white"/>
<path d="M226.389 22.7575V7.45102H227.796V11.6442L227.65 11.175C228.08 9.94345 228.803 8.99535 229.82 8.3307C230.836 7.66605 232.107 7.33372 233.632 7.33372V8.77054C233.573 8.77054 233.514 8.77054 233.456 8.77054C233.397 8.75099 233.338 8.74122 233.28 8.74122C231.579 8.74122 230.25 9.2788 229.292 10.354C228.334 11.4096 227.855 12.8855 227.855 14.7817V22.7575H226.389Z" fill="white"/>
<path d="M237.671 22.7575V7.45102H239.137V22.7575H237.671ZM238.404 3.72702C238.072 3.72702 237.788 3.60973 237.554 3.37515C237.319 3.14056 237.202 2.86688 237.202 2.55411C237.202 2.22178 237.319 1.93833 237.554 1.70375C237.788 1.46917 238.072 1.35187 238.404 1.35187C238.756 1.35187 239.04 1.46917 239.255 1.70375C239.489 1.91878 239.606 2.19246 239.606 2.52479C239.606 2.85711 239.489 3.14056 239.255 3.37515C239.04 3.60973 238.756 3.72702 238.404 3.72702Z" fill="white"/>
<path d="M249.774 22.8748C248.425 22.8748 247.389 22.5034 246.666 21.7605C245.962 21.0177 245.61 20.0012 245.61 18.711V4.10822H247.076V18.5644C247.076 19.5418 247.321 20.2944 247.809 20.8222C248.298 21.35 249.002 21.6139 249.921 21.6139C250.878 21.6139 251.67 21.3305 252.296 20.7636L252.911 21.7899C252.521 22.1613 252.042 22.435 251.475 22.6109C250.927 22.7868 250.36 22.8748 249.774 22.8748ZM242.795 8.7119V7.45102H251.944V8.7119H242.795Z" fill="white"/>
<path d="M256.362 28.5634C255.658 28.5634 254.994 28.4461 254.368 28.2116C253.762 27.977 253.244 27.6349 252.814 27.1853L253.547 26.071C253.938 26.4815 254.358 26.7845 254.808 26.98C255.277 27.1755 255.805 27.2732 256.391 27.2732C257.095 27.2732 257.711 27.0777 258.239 26.6868C258.786 26.2958 259.294 25.5823 259.763 24.5462L260.819 22.2004L261.024 21.9365L267.505 7.45102H269L261.142 24.8394C260.731 25.7778 260.281 26.5108 259.793 27.0386C259.324 27.586 258.806 27.977 258.239 28.2116C257.672 28.4461 257.046 28.5634 256.362 28.5634ZM260.79 23.1387L253.694 7.45102H255.248L261.699 21.8485L260.79 23.1387Z" fill="white"/>
</svg>
