<svg width="150" height="120" viewBox="0 0 150 120" fill="none" xmlns="http://www.w3.org/2000/svg">
<path d="M41.1986 82.1127C47.9031 81.1206 60.6174 79.8079 60.6174 79.8079C60.6174 79.8079 65.7496 81.4112 69.1386 83.4651C72.5277 85.519 77.1141 89.4219 77.1141 89.4219C77.1141 89.4219 66.694 100.987 58.7577 104.965C50.2732 109.217 44.251 110.535 34.8432 109.286C23.5034 107.779 15.7204 104.445 9.27287 94.9959C2.76265 85.4549 5.39437 65.6744 5.39437 65.6744C5.39437 65.6744 15.7265 82.3781 26.5378 84.052C32.2451 84.9356 35.4856 82.9582 41.1986 82.1127Z" fill="#AD9166"/>
<path d="M99.3878 48.8303C99.3878 48.8303 42.8408 49.0621 42.8408 51.8431C42.8408 54.6241 44.785 66.04 45.39 75.2498C45.9052 83.0917 47.546 85.6371 50.0251 93.0946C53.7277 104.233 67.3012 97.8613 78.9938 98.8883C88.952 99.763 96.6335 106.053 104.255 99.5836C110.976 93.8788 116.712 86.3301 121.172 78.7261C128.177 66.7844 140.176 60.8813 139.944 56.9416C139.712 53.0018 99.3878 48.8303 99.3878 48.8303Z" fill="#CAAF87"/>
<path d="M97.7656 58.7956C97.7656 58.7956 42.8408 49.0621 42.8408 51.8431C42.8408 54.6241 54.5186 64.4178 55.1236 73.6276C55.6388 81.4694 47.546 85.6371 50.0251 93.0946C53.7277 104.233 67.3012 97.8613 78.9938 98.8883C88.952 99.763 96.6335 106.053 104.255 99.5836C110.976 93.8788 107.21 85.8666 111.671 78.2626C118.675 66.3209 140.176 60.8813 139.944 56.9416C139.712 53.0018 97.7656 58.7956 97.7656 58.7956Z" fill="#F4E8C9"/>
<path d="M48.4028 88.6912L50.2568 93.558L51.6473 96.339C51.6473 96.339 43.7678 92.1675 42.3773 91.704C40.9868 91.2405 40.2723 90.0467 40.5233 88.6912C40.7015 87.7287 40.964 86.8429 41.9138 86.6055C43.7678 86.142 48.4028 88.6912 48.4028 88.6912Z" fill="#FFD8D3"/>
<path fill-rule="evenodd" clip-rule="evenodd" d="M43.9643 88.2251L40.9516 87.7616L41.0221 87.3035L44.0348 87.767L43.9643 88.2251Z" fill="#AD9166"/>
<path fill-rule="evenodd" clip-rule="evenodd" d="M43.7326 89.6156L40.7198 89.1521L40.7903 88.6939L43.8031 89.1574L43.7326 89.6156Z" fill="#AD9166"/>
<path fill-rule="evenodd" clip-rule="evenodd" d="M43.7326 91.0061L40.7198 90.5426L40.7903 90.0845L43.8031 90.548L43.7326 91.0061Z" fill="#AD9166"/>
<path d="M110.148 93.6786L107.428 96.4827L105.645 97.9868C105.645 97.9868 112.312 97.4483 113.407 97.5411C114.503 97.634 115.349 97.0232 115.578 96.0147C115.741 95.2985 115.822 94.6103 115.238 94.1651C114.098 93.296 110.148 93.6786 110.148 93.6786Z" fill="#FFD8D3"/>
<path fill-rule="evenodd" clip-rule="evenodd" d="M113.33 94.7292L115.544 95.3031L115.66 94.8544L113.447 94.2806L113.33 94.7292Z" fill="#AD9166"/>
<path fill-rule="evenodd" clip-rule="evenodd" d="M113.078 95.7562L115.292 96.33L115.408 95.8814L113.194 95.3075L113.078 95.7562Z" fill="#AD9166"/>
<path fill-rule="evenodd" clip-rule="evenodd" d="M112.666 96.7144L114.879 97.2882L114.996 96.8396L112.782 96.2657L112.666 96.7144Z" fill="#AD9166"/>
<path d="M43.9246 47.1848C46.1662 48.4009 47.9393 51.1245 47.9393 51.1245L44.6199 54.6008C44.6199 54.6008 42.7388 53.127 41.4503 52.5382C39.6772 51.7279 37.3539 52.975 36.7404 51.1245C36.2167 49.5452 37.0673 48.2292 38.3626 47.1848C40.0535 45.8214 42.0154 46.149 43.9246 47.1848Z" fill="#FFD8D3"/>
<path fill-rule="evenodd" clip-rule="evenodd" d="M42.4686 48.5658L38.5289 47.4071L38.6597 46.9624L42.5994 48.1212L42.4686 48.5658Z" fill="#AD9166"/>
<path fill-rule="evenodd" clip-rule="evenodd" d="M41.0783 49.7247L37.1385 48.5659L37.2693 48.1212L41.209 49.28L41.0783 49.7247Z" fill="#AD9166"/>
<path fill-rule="evenodd" clip-rule="evenodd" d="M40.6147 51.1152L36.6749 49.9565L36.8057 49.5118L40.7455 50.6705L40.6147 51.1152Z" fill="#AD9166"/>
<path d="M139.69 53.1177C137.65 53.8212 135.792 55.8479 135.792 55.8479L138.079 59.21C138.079 59.21 139.854 58.2414 141.011 57.929C142.603 57.499 144.369 58.8625 145.138 57.4035C145.794 56.1582 145.267 54.9418 144.331 53.8903C143.11 52.5176 141.427 52.5185 139.69 53.1177Z" fill="#FFD8D3"/>
<path fill-rule="evenodd" clip-rule="evenodd" d="M140.717 54.5079L144.166 54.0881L144.11 53.628L140.661 54.0478L140.717 54.5079Z" fill="#AD9166"/>
<path fill-rule="evenodd" clip-rule="evenodd" d="M141.717 55.6681L145.165 55.2483L145.109 54.7882L141.661 55.208L141.717 55.6681Z" fill="#AD9166"/>
<path fill-rule="evenodd" clip-rule="evenodd" d="M141.91 56.8929L145.359 56.4731L145.303 56.013L141.854 56.4328L141.91 56.8929Z" fill="#AD9166"/>
<path d="M125.427 43.2921C125.427 56.5097 111.14 67.2246 93.5166 67.2246C75.8932 67.2246 61.6066 56.5097 61.6066 43.2921C61.6066 30.0745 75.8932 19.3595 93.5166 19.3595C111.14 19.3595 125.427 30.0745 125.427 43.2921Z" fill="#CAAF86"/>
<path d="M125.427 39.3034C125.427 52.9615 111.14 64.0337 93.5166 64.0337C75.8932 64.0337 61.6066 52.9615 61.6066 39.3034C61.6066 25.6452 75.8932 14.573 93.5166 14.573C111.14 14.573 125.427 25.6452 125.427 39.3034Z" fill="#F4E8C9"/>
<path d="M81.114 25.8467C68.0259 25.8467 61.5244 41.842 61.5244 41.842C61.5244 41.842 60.5956 36.7853 63.6916 28.8389C66.7876 20.8926 74.1136 14.3911 94.4748 14.3911C106.788 14.3911 118.792 20.9316 123.65 30.2837C126.628 36.0169 125.198 39.6748 125.198 39.6748C125.198 39.6748 122.343 25.8467 111.479 25.8467C89.8002 25.8467 101.358 50.5107 101.358 50.5107H94.4747C94.4747 50.5107 102.261 25.8467 81.114 25.8467Z" fill="#CAAF87"/>
<path d="M94.4024 39.6024C94.4024 46.0747 89.1556 51.3215 82.6834 51.3215C76.2111 51.3215 70.9643 46.0747 70.9643 39.6024C70.9643 33.1302 76.2111 27.8834 82.6834 27.8834C89.1556 27.8834 94.4024 33.1302 94.4024 39.6024Z" fill="#AD9166"/>
<path d="M91.9779 39.6026C91.9779 44.7357 87.8167 48.897 82.6835 48.897C77.5504 48.897 73.3891 44.7357 73.3891 39.6026C73.3891 34.4694 77.5504 30.3082 82.6835 30.3082C87.8167 30.3082 91.9779 34.4694 91.9779 39.6026Z" fill="#F0AD42"/>
<path d="M89.5533 39.6026C89.5533 43.3967 86.4776 46.4724 82.6835 46.4724C78.8894 46.4724 75.8137 43.3967 75.8137 39.6026C75.8137 35.8085 78.8894 32.7328 82.6835 32.7328C86.4776 32.7328 89.5533 35.8085 89.5533 39.6026Z" fill="#222529"/>
<path d="M87.9367 35.1573C87.9367 36.0501 87.213 36.7738 86.3202 36.7738C85.4275 36.7738 84.7038 36.0501 84.7038 35.1573C84.7038 34.2646 85.4275 33.5409 86.3202 33.5409C87.213 33.5409 87.9367 34.2646 87.9367 35.1573Z" fill="white"/>
<path d="M122.69 39.6024C122.69 46.0747 117.443 51.3215 110.971 51.3215C104.499 51.3215 99.2518 46.0747 99.2518 39.6024C99.2518 33.1302 104.499 27.8834 110.971 27.8834C117.443 27.8834 122.69 33.1302 122.69 39.6024Z" fill="#AD9166"/>
<path d="M120.265 39.6026C120.265 44.7357 116.104 48.897 110.971 48.897C105.837 48.897 101.676 44.7357 101.676 39.6026C101.676 34.4694 105.837 30.3082 110.971 30.3082C116.104 30.3082 120.265 34.4694 120.265 39.6026Z" fill="#F0AD42"/>
<path d="M117.84 39.6026C117.84 43.3967 114.765 46.4724 110.971 46.4724C107.176 46.4724 104.101 43.3967 104.101 39.6026C104.101 35.8085 107.176 32.7328 110.971 32.7328C114.765 32.7328 117.84 35.8085 117.84 39.6026Z" fill="#222529"/>
<path d="M116.224 35.1574C116.224 36.0501 115.5 36.7738 114.607 36.7738C113.715 36.7738 112.991 36.0501 112.991 35.1574C112.991 34.2646 113.715 33.5409 114.607 33.5409C115.5 33.5409 116.224 34.2646 116.224 35.1574Z" fill="white"/>
<path d="M98.0394 54.5543C98.0394 54.5543 93.1446 52.9174 93.6277 51.279C94.2466 49.1804 101.832 49.1804 102.451 51.279C102.934 52.9174 98.0394 54.5543 98.0394 54.5543Z" fill="#E0B9B4"/>
<path fill-rule="evenodd" clip-rule="evenodd" d="M97.7434 55.8956L98.0393 55.5768L98.3351 55.8955L98.3371 55.8975L98.3468 55.9077C98.356 55.9172 98.3704 55.932 98.3898 55.9513C98.4287 55.9899 98.4875 56.0465 98.564 56.1153C98.7174 56.2532 98.9399 56.4381 99.2143 56.6243C99.7702 57.0015 100.502 57.3589 101.284 57.3819C102.118 57.4064 102.946 57.0485 103.591 56.6544C103.909 56.4602 104.171 56.264 104.354 56.1167C104.445 56.0432 104.515 55.9822 104.562 55.9404C104.586 55.9195 104.603 55.9034 104.615 55.893L104.627 55.8816L104.629 55.8793C104.629 55.8793 104.629 55.8793 104.909 56.1708C105.189 56.4623 105.189 56.4623 105.189 56.4624L105.188 56.4632L105.186 56.4647L105.181 56.4696L105.164 56.4861C105.149 56.5001 105.127 56.5198 105.099 56.5445C105.044 56.5939 104.963 56.663 104.862 56.7453C104.658 56.9095 104.367 57.1275 104.013 57.344C103.313 57.7714 102.323 58.221 101.26 58.1898C100.259 58.1604 99.3754 57.7103 98.7605 57.2931C98.4586 57.0883 98.2129 56.8854 98.0393 56.7303C97.8658 56.8854 97.62 57.0883 97.3182 57.2931C96.7033 57.7103 95.8192 58.1604 94.8184 58.1898C93.7553 58.221 92.7652 57.7714 92.0659 57.344C91.7115 57.1275 91.4202 56.9095 91.2171 56.7453C91.1153 56.663 91.0351 56.5939 90.9796 56.5445C90.9518 56.5198 90.9302 56.5001 90.9151 56.4861L90.8973 56.4696L90.8922 56.4647L90.8906 56.4632L90.8898 56.4624C90.8897 56.4623 90.8896 56.4623 91.1695 56.1708C91.4494 55.8793 91.4494 55.8792 91.4493 55.8792C91.4493 55.8792 91.4491 55.879 91.4493 55.8792L91.4519 55.8816L91.464 55.893C91.4754 55.9034 91.493 55.9195 91.5165 55.9404C91.5635 55.9822 91.6341 56.0432 91.725 56.1167C91.9074 56.264 92.1696 56.4602 92.4874 56.6544C93.1322 57.0485 93.9607 57.4064 94.7946 57.3819C95.5762 57.3589 96.3085 57.0015 96.8644 56.6243C97.1388 56.4381 97.3613 56.2532 97.5146 56.1153C97.5911 56.0465 97.6499 55.9899 97.6888 55.9513C97.7082 55.932 97.7227 55.9172 97.7318 55.9077L97.7416 55.8975L97.7434 55.8956ZM91.4493 55.8792C91.4493 55.8792 91.4491 55.879 91.4493 55.8792Z" fill="#AD9166"/>
<path d="M69.7518 10.1028C69.7518 10.1028 74.8355 10.5487 77.8339 11.7192C81.0841 12.988 85.3951 16.4789 85.3951 16.4789C78.7625 18.6869 75.2203 20.5853 69.2372 25.2176L69.7518 10.1028Z" fill="#AD9166"/>
<path d="M72.0181 13.3567C72.0181 13.3567 75.2597 13.6411 77.1717 14.3874C79.2442 15.1965 81.9931 17.4224 81.9931 17.4224C77.7638 18.8304 75.5051 20.0409 71.69 22.9947L72.0181 13.3567Z" fill="#FFD8D3"/>
<path d="M119.194 13.9716C119.194 13.9716 115.198 13.943 112.773 14.6336C110.145 15.3823 106.526 17.7849 106.526 17.7849C111.533 19.9975 114.155 21.7398 118.477 25.7945L119.194 13.9716Z" fill="#AD9166"/>
<path d="M117.028 16.3181C117.028 16.3181 114.48 16.2998 112.934 16.7402C111.258 17.2176 108.95 18.7496 108.95 18.7496C112.143 20.1604 113.815 21.2714 116.571 23.8569L117.028 16.3181Z" fill="#FFD8D3"/>
</svg>
