<svg width="150" height="120" viewBox="0 0 150 120" fill="none" xmlns="http://www.w3.org/2000/svg">
<path d="M123.528 15.9641L110.016 17.4753L114.619 26.2349L123.528 15.9641Z" fill="#222529"/>
<path d="M125.116 7.68504L106.583 15.4128L112.525 23.3261L125.116 7.68504Z" fill="#222529"/>
<path d="M31.304 15.769L44.8156 17.2802L40.2122 26.0399L31.304 15.769Z" fill="#222529"/>
<path d="M29.7168 7.48985L48.2493 15.2177L42.3076 23.1309L29.7168 7.48985Z" fill="#222529"/>
<path d="M34.8494 43.6186C34.8494 20.3057 53.7482 1.40686 77.0611 1.40686V1.40686C100.374 1.40686 119.273 20.3057 119.273 43.6186V71.7598C119.273 95.0727 100.374 113.972 77.0611 113.972V113.972C53.7482 113.972 34.8494 95.0727 34.8494 71.7598V43.6186Z" fill="#596068"/>
<path fill-rule="evenodd" clip-rule="evenodd" d="M119.271 43.6223C119.271 20.3094 100.373 1.41052 77.0597 1.41052C53.7468 1.41052 34.8479 20.3094 34.8479 43.6223V71.7635C34.8479 76.4429 35.6093 80.9444 37.015 85.151L51.8106 70.3554V105.594C58.8521 110.858 67.5919 113.975 77.0597 113.975C86.5624 113.975 95.3316 110.835 102.387 105.536V70.3571L117.123 85.0939C118.517 80.9037 119.271 76.4217 119.271 71.7635V43.6223Z" fill="#AEB5BC"/>
<path fill-rule="evenodd" clip-rule="evenodd" d="M107.675 14.557C114.862 22.1258 119.272 32.3572 119.272 43.6186V71.7598C119.272 76.4888 118.495 81.0362 117.06 85.281L77.0592 45.28L37.06 85.2792C35.626 81.0349 34.8486 76.4881 34.8486 71.7598V43.6186C34.8486 20.3057 53.7475 1.40686 77.0604 1.40686C85.8027 1.40686 93.9244 4.06451 100.661 8.61597C93.9244 4.06452 85.8027 1.4069 77.0604 1.4069C65.0092 1.4069 54.1375 6.45705 46.4462 14.5565L77.061 45.1713L107.675 14.557Z" fill="#DFE2E5"/>
<path d="M119.272 45.1273C119.272 54.841 111.398 62.7155 101.684 62.7155C91.9705 62.7155 84.0959 54.841 84.0959 45.1273C84.0959 35.4136 91.9705 27.5391 101.684 27.5391C111.398 27.5391 119.272 35.4136 119.272 45.1273Z" fill="#52BAE6"/>
<path fill-rule="evenodd" clip-rule="evenodd" d="M101.684 58.0039C108.796 58.0039 114.561 52.2389 114.561 45.1273C114.561 38.0157 108.796 32.2506 101.684 32.2506C94.5726 32.2506 88.8075 38.0157 88.8075 45.1273C88.8075 52.2389 94.5726 58.0039 101.684 58.0039ZM101.684 62.7155C111.398 62.7155 119.272 54.841 119.272 45.1273C119.272 35.4136 111.398 27.5391 101.684 27.5391C91.9705 27.5391 84.0959 35.4136 84.0959 45.1273C84.0959 54.841 91.9705 62.7155 101.684 62.7155Z" fill="#E8EDF2"/>
<path fill-rule="evenodd" clip-rule="evenodd" d="M101.684 59.9014C109.844 59.9014 116.458 53.2868 116.458 45.1273C116.458 36.9678 109.844 30.3532 101.684 30.3532C93.5247 30.3532 86.9101 36.9678 86.9101 45.1273C86.9101 53.2868 93.5247 59.9014 101.684 59.9014ZM101.684 62.7155C111.398 62.7155 119.272 54.841 119.272 45.1273C119.272 35.4136 111.398 27.5391 101.684 27.5391C91.9705 27.5391 84.0959 35.4136 84.0959 45.1273C84.0959 54.841 91.9705 62.7155 101.684 62.7155Z" fill="#596068"/>
<circle cx="101.686" cy="45.1252" r="10.1827" fill="#222529"/>
<circle cx="97.98" cy="41.4274" r="2.77709" fill="white"/>
<path d="M34.8492 45.1273C34.8492 54.841 42.7237 62.7155 52.4374 62.7155C62.1511 62.7155 70.0256 54.841 70.0256 45.1273C70.0256 35.4136 62.1511 27.5391 52.4374 27.5391C42.7237 27.5391 34.8492 35.4136 34.8492 45.1273Z" fill="#52BAE6"/>
<path fill-rule="evenodd" clip-rule="evenodd" d="M52.4374 58.0039C45.3258 58.0039 39.5608 52.2389 39.5608 45.1273C39.5608 38.0157 45.3258 32.2506 52.4374 32.2506C59.549 32.2506 65.314 38.0157 65.314 45.1273C65.314 52.2389 59.549 58.0039 52.4374 58.0039ZM52.4374 62.7155C42.7237 62.7155 34.8492 54.841 34.8492 45.1273C34.8492 35.4136 42.7237 27.5391 52.4374 27.5391C62.1511 27.5391 70.0256 35.4136 70.0256 45.1273C70.0256 54.841 62.1511 62.7155 52.4374 62.7155Z" fill="#E8EDF2"/>
<path fill-rule="evenodd" clip-rule="evenodd" d="M52.4374 59.9014C44.2779 59.9014 37.6633 53.2868 37.6633 45.1273C37.6633 36.9678 44.2779 30.3532 52.4374 30.3532C60.5969 30.3532 67.2115 36.9678 67.2115 45.1273C67.2115 53.2868 60.5969 59.9014 52.4374 59.9014ZM52.4374 62.7155C42.7237 62.7155 34.8492 54.841 34.8492 45.1273C34.8492 35.4136 42.7237 27.5391 52.4374 27.5391C62.1511 27.5391 70.0256 35.4136 70.0256 45.1273C70.0256 54.841 62.1511 62.7155 52.4374 62.7155Z" fill="#596068"/>
<circle r="10.1827" transform="matrix(-1 0 0 1 52.437 45.1252)" fill="#222529"/>
<circle r="2.77709" transform="matrix(-1 0 0 1 56.1416 41.4274)" fill="white"/>
<path d="M77.0607 62.7135L70.9679 53.2159L83.1534 53.2159L77.0607 62.7135Z" fill="#222529"/>
<rect x="70.0256" y="119" width="2.11059" height="12.6635" rx="1.05529" transform="rotate(-180 70.0256 119)" fill="#222529"/>
<rect x="66.5078" y="119" width="2.11059" height="12.6635" rx="1.05529" transform="rotate(-180 66.5078 119)" fill="#222529"/>
<rect x="62.9927" y="119" width="2.11059" height="12.6635" rx="1.05529" transform="rotate(-180 62.9927 119)" fill="#222529"/>
<rect x="59.4722" y="119" width="2.11059" height="12.6635" rx="1.05529" transform="rotate(-180 59.4722 119)" fill="#222529"/>
<rect x="95.3533" y="119" width="2.11059" height="12.6635" rx="1.05529" transform="rotate(-180 95.3533 119)" fill="#222529"/>
<rect x="91.8354" y="119" width="2.11059" height="12.6635" rx="1.05529" transform="rotate(-180 91.8354 119)" fill="#222529"/>
<rect x="88.3176" y="119" width="2.11059" height="12.6635" rx="1.05529" transform="rotate(-180 88.3176 119)" fill="#222529"/>
<rect x="84.7998" y="119" width="2.11059" height="12.6635" rx="1.05529" transform="rotate(-180 84.7998 119)" fill="#222529"/>
<path d="M76.9632 67.4336C76.4216 67.4725 76.0112 67.9467 76.0394 68.5001V68.771C76.0648 69.078 76.11 69.3821 76.1692 69.6833C76.2557 70.2601 76.2869 70.8442 76.2623 71.4272C76.2087 71.6189 76.1015 71.7918 75.9548 71.9244L75.9337 72.3309C75.3625 72.3799 74.7956 72.4692 74.2371 72.5989C71.8876 73.1408 69.7482 74.386 68.0968 76.1803L67.7583 75.9353C67.5721 75.993 67.3719 75.9714 67.2012 75.8777C66.7435 75.5314 66.3198 75.1405 65.9362 74.7103C65.7435 74.475 65.5378 74.2513 65.3199 74.0401L65.1112 73.8701C64.925 73.7173 64.6966 73.6294 64.4582 73.6179C64.316 73.6102 64.174 73.6369 64.0439 73.6961C63.9137 73.7552 63.7991 73.8449 63.7094 73.958C63.3907 74.4149 63.495 75.0475 63.9407 75.3747L64.1353 75.5332C64.3858 75.7036 64.6457 75.859 64.9138 75.9988C65.413 76.2827 65.884 76.6156 66.3212 77.0076C66.4331 77.1706 66.498 77.3623 66.5088 77.561L66.8162 77.8493C65.1563 80.3945 64.4752 83.4772 64.9011 86.5052L64.5062 86.6205C64.4032 86.7877 64.2664 86.9304 64.1029 87.0356C63.5519 87.1859 62.988 87.281 62.419 87.3195C62.117 87.3258 61.8157 87.3498 61.5164 87.3916L61.2668 87.4492H61.2386C61.0654 87.4738 60.9022 87.547 60.7673 87.6607C60.6324 87.7744 60.531 87.9242 60.4744 88.0933C60.4178 88.2624 60.4083 88.4443 60.4468 88.6186C60.4854 88.7929 60.5705 88.9529 60.6928 89.0807C60.8162 89.2078 60.9718 89.2974 61.1421 89.3394C61.3125 89.3814 61.4909 89.3742 61.6574 89.3185H61.6758L61.9296 89.2897C62.2159 89.2032 62.498 89.0965 62.773 88.9755C63.3018 88.7593 63.8504 88.5936 64.4117 88.4855C64.6063 88.497 64.7925 88.5647 64.9504 88.68L65.3735 88.608C66.2902 91.5149 68.2166 93.9779 70.789 95.5301L70.6169 95.8976C70.6959 96.0663 70.7255 96.2536 70.7015 96.4395C70.4689 96.9901 70.184 97.5176 69.8511 98.0134C69.6686 98.2593 69.5 98.5158 69.3463 98.7815L69.2264 99.0409C69.1394 99.1951 69.0958 99.3709 69.1004 99.5488C69.1051 99.7267 69.1577 99.8998 69.2525 100.049C69.3474 100.198 69.4807 100.318 69.6379 100.395C69.795 100.471 69.9699 100.502 70.1431 100.484C70.3167 100.464 70.4815 100.395 70.6192 100.285C70.7568 100.175 70.862 100.028 70.923 99.861L71.04 99.616C71.1472 99.3277 71.2375 99.0337 71.3108 98.7368C71.5604 98.107 71.6958 97.4311 72.0371 97.0131C72.1486 96.906 72.2892 96.8357 72.4404 96.8114L72.652 96.4179C75.4404 97.5132 78.5259 97.5209 81.3195 96.4395L81.5071 96.8071C81.6989 96.8359 81.8709 96.944 81.9866 97.1025C82.2517 97.6185 82.4661 98.1589 82.6297 98.7167C82.7043 99.0153 82.7956 99.3093 82.9033 99.5973L83.0203 99.8423C83.0819 100.009 83.1874 100.155 83.3251 100.264C83.4628 100.373 83.6274 100.442 83.8007 100.461C83.974 100.481 84.1492 100.451 84.3069 100.375C84.4646 100.299 84.5987 100.18 84.6943 100.031C84.789 99.8812 84.8413 99.7075 84.8453 99.5292C84.8492 99.3508 84.8048 99.1749 84.7169 99.0208L84.5942 98.7613C84.4405 98.4965 84.2719 98.241 84.0893 97.9961C83.765 97.5176 83.4857 97.0074 83.2431 96.4727C83.2205 96.3749 83.2173 96.2735 83.2338 96.1745C83.2503 96.0755 83.2861 95.9808 83.339 95.8962C83.2789 95.7705 83.2266 95.641 83.1825 95.5085C85.7492 93.9448 87.6672 91.4731 88.574 88.5618L88.9745 88.6339C89.1184 88.4999 89.3073 88.4293 89.5006 88.435C90.0604 88.5446 90.609 88.7233 91.1393 88.925C91.4143 89.0547 91.6964 89.1643 91.9826 89.2565C92.0503 89.2752 92.1491 89.2911 92.2252 89.3098H92.2435C92.41 89.3648 92.5881 89.3714 92.758 89.329C92.928 89.2866 93.083 89.1968 93.206 89.0697C93.3289 88.9426 93.4149 88.783 93.4544 88.6089C93.4939 88.4347 93.4853 88.2528 93.4296 88.0834C93.3726 87.9141 93.2707 87.7643 93.1352 87.6508C92.9997 87.5373 92.836 87.4645 92.6624 87.4406L92.3888 87.3743C92.0895 87.3326 91.7882 87.3085 91.4862 87.3022C90.9165 87.2647 90.3524 87.1696 89.8024 87.0183C89.6331 86.9217 89.4921 86.7776 89.3962 86.6032L89.0154 86.4879C89.4214 83.4614 88.7259 80.3878 87.0608 77.8507L87.3936 77.5365C87.3795 77.3391 87.443 77.1431 87.5685 76.9918C88.0014 76.6113 88.471 76.2755 88.9646 75.9887C89.2326 75.8489 89.4926 75.6934 89.7431 75.5231L89.949 75.3531C90.1006 75.2569 90.2225 75.1189 90.3005 74.9549C90.3785 74.7909 90.4095 74.6077 90.3899 74.4265C90.3703 74.2452 90.3008 74.0734 90.1896 73.9308C90.0784 73.7882 89.93 73.6807 89.7615 73.6207C89.5931 73.5609 89.4116 73.5509 89.2379 73.5919C89.0642 73.633 88.9054 73.7234 88.7799 73.8528L88.5712 74.0228C88.3534 74.234 88.1476 74.4578 87.9549 74.693C87.5826 75.1283 87.1708 75.5246 86.7237 75.8791C86.5433 75.9542 86.3459 75.9762 86.154 75.9425L85.7972 76.202C83.7382 73.9969 80.9641 72.6277 77.9913 72.3539C77.9913 72.2098 77.9729 71.9936 77.9701 71.9259C77.8108 71.8135 77.6993 71.642 77.6627 71.4474C77.6431 70.8654 77.679 70.2828 77.7699 69.7078C77.8305 69.4052 77.8728 69.1025 77.8996 68.7955V68.5073C77.9278 67.9539 77.5188 67.4797 76.9759 67.4408L76.9632 67.4336ZM75.787 74.8789L75.505 79.9131H75.4838C75.4697 80.2244 75.2906 80.4896 75.0156 80.6395C74.7406 80.7894 74.4148 80.7447 74.1694 80.5616L70.129 77.636C71.415 76.3451 73.0284 75.4471 74.7871 75.0432C75.1171 74.9712 75.45 74.9164 75.7842 74.8789H75.787ZM78.1394 74.8789C80.2618 75.1484 82.2376 76.1227 83.7664 77.6518L79.764 80.5588C79.5172 80.7605 79.1787 80.8009 78.8924 80.6625C78.6062 80.5242 78.4228 80.2302 78.4186 79.9073L78.1394 74.8789ZM68.6623 79.5297L72.3572 82.8993V82.9209C72.5871 83.1256 72.6872 83.4441 72.6195 83.7482C72.5518 84.0523 72.3234 84.293 72.0314 84.3751V84.3895L67.2901 85.7832C67.0555 83.6002 67.5388 81.3995 68.6637 79.5283L68.6623 79.5297ZM85.2373 79.5297C86.3599 81.3961 86.8563 83.5853 86.6504 85.7659L81.902 84.3679V84.3492C81.6058 84.267 81.3802 84.0263 81.3139 83.7222C81.2476 83.4181 81.3463 83.1025 81.5762 82.895L85.2429 79.5413L85.2373 79.5297ZM76.2059 83.1616H77.7177L78.6414 84.3607L78.3058 85.8596L76.9477 86.5268L75.5867 85.8596L75.2666 84.3607L76.2059 83.1616ZM81.0488 87.2518C81.1122 87.2446 81.1898 87.2446 81.2391 87.2518L86.1286 88.0949C85.4234 90.1702 84.0315 91.9429 82.2151 93.1291L80.3253 88.4538C80.2733 88.3283 80.2516 88.192 80.262 88.0562C80.2723 87.9204 80.3145 87.7891 80.3848 87.6734C80.4552 87.5577 80.5517 87.461 80.6663 87.3914C80.7808 87.3218 80.9101 87.2813 81.0431 87.2734L81.0488 87.2518ZM72.8367 87.2734C73.1131 87.2777 73.3684 87.4233 73.5193 87.6596C73.6702 87.896 73.6942 88.1929 73.5856 88.4523V88.471L71.7071 93.1089C69.909 91.9314 68.5438 90.1803 67.8175 88.1266L72.6647 87.2864C72.7182 87.2806 72.7732 87.2806 72.8282 87.2864L72.8367 87.2734ZM76.9322 89.2911C77.0862 89.2861 77.2386 89.325 77.3724 89.4034C77.5061 89.4818 77.6159 89.5966 77.6895 89.735H77.7078L80.0968 94.1408L79.1421 94.429C77.3849 94.8398 75.5501 94.7432 73.8422 94.1494L76.2397 89.7436C76.385 89.4842 76.6529 89.3257 76.9448 89.3185L76.9322 89.2911Z" fill="white" stroke="white" stroke-width="0.11"/>
</svg>
