<svg width="270" height="30" viewBox="0 0 270 30" fill="none" xmlns="http://www.w3.org/2000/svg">
<path d="M9.58695 15.5196L7.23349 18.0321V23.5977H1V1.33521H7.23349V10.59L15.8522 1.33521H22.7854L13.6896 11.1943L23.2625 23.5977H15.9477L9.58695 15.5196Z" fill="#52BAE6"/>
<path d="M34.8767 24.0429C31.5692 24.0429 28.9931 23.1418 27.1485 21.3396C25.3251 19.5374 24.4134 16.9825 24.4134 13.675V1.33521H30.7105V13.4842C30.7105 17.0461 32.1204 18.8271 34.9403 18.8271C37.739 18.8271 39.1384 17.0461 39.1384 13.4842V1.33521H45.3401V13.675C45.3401 16.9825 44.4178 19.5374 42.5732 21.3396C40.7498 23.1418 38.1843 24.0429 34.8767 24.0429Z" fill="#52BAE6"/>
<path d="M66.7163 11.9894C67.9884 12.4346 68.9849 13.1343 69.7058 14.0884C70.4267 15.0213 70.7871 16.1557 70.7871 17.4914C70.7871 19.442 70.0026 20.9474 68.4337 22.0075C66.8647 23.0676 64.596 23.5977 61.6277 23.5977H49.606V1.33521H60.9917C63.8328 1.33521 65.9954 1.86526 67.4796 2.92538C68.9637 3.9643 69.7058 5.37425 69.7058 7.15525C69.7058 8.21537 69.4408 9.16948 68.9107 10.0176C68.4019 10.8445 67.6704 11.5017 66.7163 11.9894ZM55.8395 5.88311V10.1766H60.1648C62.285 10.1766 63.3451 9.45571 63.3451 8.01395C63.3451 6.59339 62.285 5.88311 60.1648 5.88311H55.8395ZM61.1189 19.0498C63.3239 19.0498 64.4264 18.2971 64.4264 16.7917C64.4264 15.2864 63.3239 14.5337 61.1189 14.5337H55.8395V19.0498H61.1189Z" fill="#52BAE6"/>
<path d="M91.9223 18.7317V23.5977H74.0487V1.33521H91.5089V6.20115H80.2822V9.95396H90.1731V14.6609H80.2822V18.7317H91.9223Z" fill="#52BAE6"/>
<path d="M109.107 23.7572C106.923 23.7572 104.951 23.2696 103.191 22.2943C101.453 21.319 100.074 19.9726 99.0568 18.2552C98.0603 16.5378 97.562 14.6084 97.562 12.467C97.562 10.3255 98.0603 8.39613 99.0568 6.67874C100.074 4.96135 101.453 3.615 103.191 2.63969C104.951 1.66439 106.923 1.17673 109.107 1.17673C110.718 1.17673 112.202 1.44176 113.559 1.97182C114.916 2.48068 116.072 3.24396 117.026 4.26167L116.008 5.31119C114.227 3.55139 111.948 2.6715 109.17 2.6715C107.304 2.6715 105.608 3.09554 104.082 3.94364C102.555 4.79173 101.357 5.96846 100.488 7.47383C99.6186 8.958 99.184 10.6224 99.184 12.467C99.184 14.3116 99.6186 15.9866 100.488 17.4919C101.357 18.9761 102.555 20.1422 104.082 20.9903C105.608 21.8384 107.304 22.2625 109.17 22.2625C111.927 22.2625 114.206 21.372 116.008 19.591L117.026 20.6405C116.072 21.6582 114.906 22.4321 113.527 22.9622C112.17 23.4922 110.697 23.7572 109.107 23.7572Z" fill="white"/>
<path d="M121.95 0H123.54V23.5982H121.95V0Z" fill="white"/>
<path d="M135.84 6.86956C137.896 6.86956 139.476 7.39962 140.578 8.45974C141.681 9.49866 142.232 11.0358 142.232 13.0713V23.5982H140.705V20.6405C140.175 21.6158 139.402 22.3791 138.384 22.9303C137.366 23.4604 136.147 23.7254 134.726 23.7254C132.882 23.7254 131.419 23.2908 130.338 22.4215C129.277 21.5522 128.747 20.4073 128.747 18.9867C128.747 17.6086 129.235 16.4954 130.21 15.6473C131.207 14.778 132.786 14.3434 134.949 14.3434H140.642V13.0076C140.642 11.4599 140.218 10.2831 139.37 9.47745C138.543 8.67176 137.324 8.26892 135.712 8.26892C134.61 8.26892 133.55 8.45974 132.532 8.84138C131.535 9.22303 130.687 9.73188 129.988 10.368L129.193 9.22303C130.02 8.48094 131.016 7.90848 132.182 7.50563C133.348 7.08159 134.567 6.86956 135.84 6.86956ZM134.949 22.4215C136.327 22.4215 137.493 22.1035 138.447 21.4674C139.423 20.8313 140.154 19.909 140.642 18.7005V15.5837H134.981C133.348 15.5837 132.161 15.8806 131.419 16.4742C130.698 17.0679 130.338 17.8842 130.338 18.9231C130.338 20.0044 130.74 20.8631 131.546 21.4992C132.352 22.1141 133.486 22.4215 134.949 22.4215Z" fill="white"/>
<path d="M150.31 10.6224C150.819 9.41385 151.614 8.49154 152.696 7.85547C153.777 7.1982 155.092 6.86956 156.639 6.86956V8.42794L156.258 8.39613C154.413 8.39613 152.971 8.9792 151.932 10.1453C150.893 11.2903 150.374 12.891 150.374 14.9477V23.5982H148.784V6.99678H150.31V10.6224Z" fill="white"/>
<path d="M161.021 6.99678H162.611V23.5982H161.021V6.99678ZM161.816 2.95773C161.455 2.95773 161.148 2.84112 160.894 2.60789C160.639 2.35346 160.512 2.04603 160.512 1.68559C160.512 1.32515 160.639 1.01771 160.894 0.763285C161.148 0.508857 161.455 0.381643 161.816 0.381643C162.176 0.381643 162.484 0.508857 162.738 0.763285C162.993 0.996511 163.12 1.29334 163.12 1.65378C163.12 2.01422 162.993 2.32166 162.738 2.57609C162.484 2.83051 162.176 2.95773 161.816 2.95773Z" fill="white"/>
<path d="M177.55 22.5487C177.148 22.9303 176.639 23.2272 176.024 23.4392C175.43 23.63 174.805 23.7254 174.147 23.7254C172.706 23.7254 171.593 23.3332 170.808 22.5487C170.024 21.743 169.631 20.6299 169.631 19.2093V8.36433H166.578V6.99678H169.631V3.37117H171.221V6.99678H176.501V8.36433H171.221V19.0503C171.221 20.1316 171.476 20.9585 171.985 21.531C172.515 22.0823 173.289 22.3579 174.306 22.3579C175.345 22.3579 176.204 22.0505 176.882 21.4356L177.55 22.5487Z" fill="white"/>
<path d="M195 6.99678L186.477 25.8563C185.841 27.3192 185.099 28.3582 184.25 28.973C183.424 29.5879 182.438 29.8953 181.293 29.8953C180.529 29.8953 179.809 29.7681 179.13 29.5137C178.473 29.2593 177.911 28.8882 177.445 28.4006L178.24 27.192C179.088 28.0613 180.116 28.496 181.325 28.496C182.13 28.496 182.819 28.2733 183.392 27.8281C183.964 27.3828 184.494 26.6196 184.982 25.5382L185.872 23.5346L178.399 6.99678H180.084L186.731 21.849L193.378 6.99678H195Z" fill="white"/>
</svg>
