<svg width="245" height="51" viewBox="0 0 245 51" fill="none" xmlns="http://www.w3.org/2000/svg">
<path d="M135.777 34.6351C133.521 34.6351 131.484 34.1294 129.666 33.1181C127.87 32.1067 126.446 30.7106 125.395 28.9298C124.365 27.1489 123.851 25.1482 123.851 22.9277C123.851 20.7071 124.365 18.7064 125.395 16.9255C126.446 15.1447 127.87 13.7486 129.666 12.7372C131.484 11.7259 133.521 11.2202 135.777 11.2202C137.442 11.2202 138.975 11.495 140.377 12.0447C141.779 12.5723 142.973 13.3638 143.959 14.4191L142.907 15.5074C141.067 13.6826 138.713 12.7702 135.843 12.7702C133.916 12.7702 132.163 13.2099 130.586 14.0894C129.009 14.9688 127.772 16.189 126.873 17.75C125.975 19.289 125.526 21.0149 125.526 22.9277C125.526 24.8404 125.975 26.5773 126.873 28.1383C127.772 29.6773 129.009 30.8865 130.586 31.766C132.163 32.6454 133.916 33.0851 135.843 33.0851C138.691 33.0851 141.045 32.1617 142.907 30.3149L143.959 31.4032C142.973 32.4585 141.768 33.261 140.344 33.8106C138.943 34.3603 137.42 34.6351 135.777 34.6351Z" fill="#222529"/>
<path d="M149.045 10H150.688V34.4702H149.045V10Z" fill="#222529"/>
<path d="M163.395 17.1234C165.52 17.1234 167.152 17.673 168.291 18.7723C169.43 19.8496 169.999 21.4436 169.999 23.5543V34.4702H168.422V31.4032C167.874 32.4145 167.075 33.206 166.024 33.7777C164.972 34.3273 163.713 34.6021 162.245 34.6021C160.339 34.6021 158.828 34.1514 157.711 33.25C156.616 32.3486 156.068 31.1613 156.068 29.6883C156.068 28.2592 156.572 27.105 157.58 26.2255C158.609 25.3241 160.241 24.8734 162.475 24.8734H168.356V23.4883C168.356 21.8833 167.918 20.6631 167.042 19.8277C166.188 18.9922 164.928 18.5745 163.264 18.5745C162.125 18.5745 161.029 18.7723 159.978 19.1681C158.949 19.5638 158.072 20.0915 157.35 20.7511L156.528 19.5638C157.382 18.7943 158.412 18.2007 159.617 17.783C160.821 17.3433 162.081 17.1234 163.395 17.1234ZM162.475 33.25C163.899 33.25 165.104 32.9202 166.089 32.2606C167.097 31.6011 167.853 30.6447 168.356 29.3915V26.1596H162.508C160.821 26.1596 159.595 26.4674 158.828 27.083C158.083 27.6986 157.711 28.545 157.711 29.6223C157.711 30.7436 158.127 31.634 158.96 32.2936C159.792 32.9312 160.964 33.25 162.475 33.25Z" fill="#222529"/>
<path d="M178.345 21.0149C178.871 19.7617 179.692 18.8053 180.809 18.1457C181.926 17.4642 183.284 17.1234 184.883 17.1234V18.7394L184.489 18.7064C182.583 18.7064 181.094 19.311 180.021 20.5202C178.947 21.7074 178.411 23.3674 178.411 25.5V34.4702H176.768V17.2553H178.345V21.0149Z" fill="#222529"/>
<path d="M189.41 17.2553H191.052V34.4702H189.41V17.2553ZM190.231 13.067C189.859 13.067 189.541 12.9461 189.278 12.7043C189.015 12.4404 188.884 12.1216 188.884 11.7479C188.884 11.3741 189.015 11.0553 189.278 10.7915C189.541 10.5277 189.859 10.3957 190.231 10.3957C190.603 10.3957 190.921 10.5277 191.184 10.7915C191.447 11.0333 191.578 11.3411 191.578 11.7149C191.578 12.0887 191.447 12.4074 191.184 12.6713C190.921 12.9351 190.603 13.067 190.231 13.067Z" fill="#222529"/>
<path d="M206.486 33.3819C206.07 33.7777 205.545 34.0855 204.909 34.3053C204.296 34.5032 203.65 34.6021 202.971 34.6021C201.481 34.6021 200.331 34.1954 199.521 33.3819C198.71 32.5465 198.305 31.3922 198.305 29.9191V18.6734H195.151V17.2553H198.305V13.4957H199.948V17.2553H205.402V18.6734H199.948V29.7543C199.948 30.8755 200.211 31.733 200.737 32.3266C201.284 32.8982 202.084 33.184 203.135 33.184C204.208 33.184 205.095 32.8652 205.796 32.2277L206.486 33.3819Z" fill="#222529"/>
<path d="M224.514 17.2553L215.708 36.8117C215.051 38.3287 214.284 39.406 213.408 40.0436C212.554 40.6812 211.535 41 210.353 41C209.564 41 208.819 40.8681 208.118 40.6043C207.439 40.3404 206.859 39.9557 206.377 39.45L207.198 38.1968C208.075 39.0982 209.137 39.5489 210.385 39.5489C211.218 39.5489 211.93 39.3181 212.521 38.8564C213.113 38.3947 213.66 37.6032 214.164 36.4819L215.084 34.4043L207.363 17.2553H209.104L215.971 32.6564L222.838 17.2553H224.514Z" fill="#222529"/>
<path d="M33.0075 35.388C30.533 35.388 28.3038 34.8641 26.3198 33.8164C24.3581 32.7686 22.8088 31.3196 21.6719 29.4694C20.5573 27.6191 20 25.5348 20 23.2164C20 20.8981 20.5573 18.8137 21.6719 16.9635C22.8088 15.1133 24.3581 13.6643 26.3198 12.6165C28.3038 11.5688 30.533 11.0449 33.0075 11.0449C35.4819 11.0449 37.7 11.5688 39.6617 12.6165C41.6457 13.6643 43.195 15.1133 44.3096 16.9635C45.4465 18.8137 46.0149 20.8981 46.0149 23.2164C46.0149 25.5348 45.4465 27.6191 44.3096 29.4694C43.195 31.3196 41.6457 32.7686 39.6617 33.8164C37.7 34.8641 35.4819 35.388 33.0075 35.388ZM33.0075 29.9041C34.1889 29.9041 35.259 29.6254 36.2175 29.0681C37.1761 28.5108 37.934 27.7306 38.4913 26.7275C39.0486 25.702 39.3273 24.5317 39.3273 23.2164C39.3273 21.9012 39.0486 20.742 38.4913 19.7389C37.934 18.7134 37.1761 17.9221 36.2175 17.3648C35.259 16.8075 34.1889 16.5288 33.0075 16.5288C31.826 16.5288 30.756 16.8075 29.7974 17.3648C28.8388 17.9221 28.0809 18.7134 27.5236 19.7389C26.9663 20.742 26.6876 21.9012 26.6876 23.2164C26.6876 24.5317 26.9663 25.702 27.5236 26.7275C28.0809 27.7306 28.8388 28.5108 29.7974 29.0681C30.756 29.6254 31.826 29.9041 33.0075 29.9041Z" fill="#6FBF4A"/>
<path d="M60.1983 11.0449C62.316 11.0449 64.1551 11.4016 65.7156 12.115C67.276 12.806 68.4798 13.8092 69.3269 15.1244C70.174 16.4173 70.5976 17.9444 70.5976 19.7054C70.5976 21.4665 70.174 22.9935 69.3269 24.2865C68.4798 25.5794 67.276 26.5826 65.7156 27.2959C64.1551 27.987 62.316 28.3325 60.1983 28.3325H56.1188V34.4517H49.498V11.0449H60.1983ZM59.797 23.1161C61.1568 23.1161 62.1823 22.8263 62.8733 22.2467C63.5644 21.6448 63.9099 20.7977 63.9099 19.7054C63.9099 18.6131 63.5644 17.766 62.8733 17.1641C62.1823 16.5622 61.1568 16.2613 59.797 16.2613H56.1188V23.1161H59.797Z" fill="#52BAE6"/>
<path d="M92.873 29.3356V34.4517H74.0807V11.0449H92.4383V16.161H80.6346V20.1067H91.0339V25.0555H80.6346V29.3356H92.873Z" fill="#F0AD42"/>
<path d="M118.626 11.0449V34.4517H113.176L102.843 21.9792V34.4517H96.3561V11.0449H101.807L112.139 23.5174V11.0449H118.626Z" fill="#D0392A"/>
</svg>
