<svg width="323" height="49" viewBox="0 0 323 49" fill="none" xmlns="http://www.w3.org/2000/svg">
<path d="M182.586 38.804C179.029 38.804 175.817 38.0075 172.951 36.4145C170.119 34.8214 167.875 32.6224 166.217 29.8173C164.594 27.0121 163.783 23.8607 163.783 20.363C163.783 16.8653 164.594 13.7139 166.217 10.9088C167.875 8.10364 170.119 5.90458 172.951 4.31155C175.817 2.71853 179.029 1.92202 182.586 1.92202C185.21 1.92202 187.627 2.35491 189.837 3.22068C192.047 4.05182 193.929 5.29854 195.483 6.96082L193.826 8.67505C190.925 5.80068 187.213 4.3635 182.689 4.3635C179.65 4.3635 176.888 5.05612 174.401 6.44136C171.915 7.8266 169.964 9.74862 168.548 12.2074C167.132 14.6316 166.425 17.3501 166.425 20.363C166.425 23.3759 167.132 26.1117 168.548 28.5705C169.964 30.9947 171.915 32.8994 174.401 34.2846C176.888 35.6699 179.65 36.3625 182.689 36.3625C187.178 36.3625 190.891 34.908 193.826 31.999L195.483 33.7132C193.929 35.3755 192.03 36.6396 189.785 37.5053C187.575 38.3711 185.175 38.804 182.586 38.804Z" fill="white"/>
<path d="M203.503 0H206.093V38.5443H203.503V0Z" fill="white"/>
<path d="M226.125 11.2204C229.475 11.2204 232.047 12.0862 233.843 13.8178C235.639 15.5147 236.536 18.0254 236.536 21.35V38.5443H234.05V33.7132C233.187 35.3063 231.926 36.553 230.269 37.4534C228.611 38.3192 226.626 38.752 224.312 38.752C221.308 38.752 218.925 38.0421 217.164 36.6222C215.437 35.2024 214.574 33.3323 214.574 31.012C214.574 28.761 215.368 26.9429 216.957 25.5576C218.58 24.1378 221.152 23.4278 224.675 23.4278H233.947V21.2461C233.947 18.718 233.256 16.796 231.875 15.48C230.528 14.1641 228.542 13.5061 225.918 13.5061C224.122 13.5061 222.396 13.8178 220.738 14.4411C219.115 15.0645 217.734 15.8956 216.594 16.9345L215.299 15.0645C216.646 13.8524 218.269 12.9173 220.168 12.2594C222.068 11.5667 224.053 11.2204 226.125 11.2204ZM224.675 36.6222C226.919 36.6222 228.819 36.1028 230.373 35.0638C231.961 34.0249 233.152 32.5185 233.947 30.5445V25.4538H224.727C222.068 25.4538 220.134 25.9386 218.925 26.9083C217.751 27.8779 217.164 29.2112 217.164 30.9081C217.164 32.6743 217.82 34.0769 219.132 35.1158C220.445 36.1201 222.292 36.6222 224.675 36.6222Z" fill="white"/>
<path d="M249.694 17.3501C250.522 15.3761 251.817 13.8697 253.578 12.8308C255.34 11.7572 257.481 11.2204 260.001 11.2204V13.7658L259.38 13.7139C256.376 13.7139 254.027 14.6662 252.335 16.5709C250.643 18.441 249.797 21.0556 249.797 24.4148V38.5443H247.207V11.4282H249.694V17.3501Z" fill="white"/>
<path d="M267.137 11.4282H269.727V38.5443H267.137V11.4282ZM268.432 4.83102C267.845 4.83102 267.345 4.64055 266.93 4.25961C266.516 3.84404 266.309 3.34189 266.309 2.75316C266.309 2.16444 266.516 1.66229 266.93 1.24671C267.345 0.831144 267.845 0.623359 268.432 0.623359C269.019 0.623359 269.52 0.831144 269.935 1.24671C270.349 1.62766 270.556 2.11249 270.556 2.70121C270.556 3.28994 270.349 3.79209 269.935 4.20766C269.52 4.62323 269.019 4.83102 268.432 4.83102Z" fill="white"/>
<path d="M294.059 36.83C293.403 37.4534 292.574 37.9382 291.573 38.2845C290.606 38.5962 289.587 38.752 288.517 38.752C286.168 38.752 284.356 38.1114 283.078 36.83C281.8 35.514 281.161 33.6959 281.161 31.3756V13.6619H276.189V11.4282H281.161V5.50632H283.751V11.4282H292.35V13.6619H283.751V31.1159C283.751 32.8821 284.166 34.2327 284.994 35.1677C285.858 36.0681 287.118 36.5183 288.776 36.5183C290.468 36.5183 291.866 36.0162 292.971 35.0119L294.059 36.83Z" fill="white"/>
<path d="M322.479 11.4282L308.597 42.2325C307.561 44.622 306.353 46.3189 304.971 47.3232C303.625 48.3275 302.019 48.8297 300.154 48.8297C298.911 48.8297 297.737 48.6219 296.632 48.2063C295.561 47.7907 294.646 47.1847 293.887 46.3882L295.182 44.4142C296.563 45.8341 298.238 46.544 300.206 46.544C301.518 46.544 302.641 46.1804 303.573 45.4531C304.505 44.7259 305.369 43.4792 306.163 41.713L307.613 38.4404L295.441 11.4282H298.186L309.012 35.6872L319.838 11.4282H322.479Z" fill="white"/>
<path d="M20.3457 39.6742C16.4753 39.6742 12.9885 38.8642 9.88518 37.2442C6.81676 35.6241 4.39341 33.3837 2.61513 30.5228C0.871709 27.6619 0 24.4391 0 20.8544C0 17.2697 0.871709 14.0469 2.61513 11.186C4.39341 8.32516 6.81676 6.08471 9.88518 4.46469C12.9885 2.84468 16.4753 2.03467 20.3457 2.03467C24.2161 2.03467 27.6855 2.84468 30.7539 4.46469C33.8572 6.08471 36.2805 8.32516 38.0239 11.186C39.8022 14.0469 40.6914 17.2697 40.6914 20.8544C40.6914 24.4391 39.8022 27.6619 38.0239 30.5228C36.2805 33.3837 33.8572 35.6241 30.7539 37.2442C27.6855 38.8642 24.2161 39.6742 20.3457 39.6742ZM20.3457 31.195C22.1937 31.195 23.8674 30.7641 25.3667 29.9024C26.8661 29.0407 28.0516 27.8343 28.9233 26.2832C29.795 24.6977 30.2309 22.8881 30.2309 20.8544C30.2309 18.8208 29.795 17.0284 28.9233 15.4774C28.0516 13.8918 26.8661 12.6682 25.3667 11.8065C23.8674 10.9448 22.1937 10.5139 20.3457 10.5139C18.4977 10.5139 16.824 10.9448 15.3246 11.8065C13.8253 12.6682 12.6398 13.8918 11.7681 15.4774C10.8964 17.0284 10.4605 18.8208 10.4605 20.8544C10.4605 22.8881 10.8964 24.6977 11.7681 26.2832C12.6398 27.8343 13.8253 29.0407 15.3246 29.9024C16.824 30.7641 18.4977 31.195 20.3457 31.195Z" fill="#6FBF4A"/>
<path d="M63.3037 2.03467C66.5711 2.03467 69.4085 2.59272 71.816 3.70883C74.2236 4.79006 76.0808 6.35958 77.3877 8.4174C78.6947 10.4403 79.3481 12.8295 79.3481 15.5849C79.3481 18.3403 78.6947 20.7295 77.3877 22.7524C76.0808 24.7753 74.2236 26.3449 71.816 27.461C69.4085 28.5422 66.5711 29.0828 63.3037 29.0828H57.0098V38.6569H46.795V2.03467H63.3037ZM62.6847 20.9213C64.7827 20.9213 66.3647 20.4679 67.4309 19.561C68.4971 18.6193 69.0302 17.2939 69.0302 15.5849C69.0302 13.8759 68.4971 12.5505 67.4309 11.6088C66.3647 10.6671 64.7827 10.1962 62.6847 10.1962H57.0098V20.9213H62.6847Z" fill="#52BAE6"/>
<path d="M114.953 30.6523V38.6569H85.4519V2.03467H114.271V10.0392H95.7406V16.2127H112.066V23.9557H95.7406V30.6523H114.953Z" fill="#F0AD42"/>
<path d="M155.645 2.03467V38.6569H146.93L130.411 19.1425V38.6569H120.04V2.03467H128.754L145.273 21.5491V2.03467H155.645Z" fill="#D0392A"/>
</svg>
