<?xml version="1.0" encoding="UTF-8" standalone="no"?>
<!DOCTYPE svg PUBLIC "-//W3C//DTD SVG 1.1//EN" "http://www.w3.org/Graphics/SVG/1.1/DTD/svg11.dtd">
<svg width="100%" height="100%" viewBox="0 0 270 30" version="1.1" xmlns="http://www.w3.org/2000/svg" xmlns:xlink="http://www.w3.org/1999/xlink" xml:space="preserve" xmlns:serif="http://www.serif.com/" style="fill-rule:evenodd;clip-rule:evenodd;stroke-linejoin:round;stroke-miterlimit:2;">
    <g id="Artboard1" transform="matrix(1,0,0,1,-83.0761,-20.307)">
        <rect x="149.811" y="20.307" width="136.057" height="29.859" style="fill:none;"/>
        <g transform="matrix(1.10255,0,0,1.24155,-83.9991,-11.0961)">
            <path d="M159.729,44.14L151.814,25.609L157.479,25.609L164.15,41.652L160.815,41.652L167.645,25.609L172.833,25.609L164.892,44.14L159.729,44.14Z" style="fill:rgb(240,223,66);fill-rule:nonzero;"/>
        </g>
        <g transform="matrix(1.10255,0,0,1.24155,-83.9991,-11.0961)">
            <path d="M173.918,44.14L173.918,25.609L178.233,25.609L185.91,38.21L183.634,38.21L191.099,25.609L195.414,25.609L195.467,44.14L190.649,44.14L190.596,32.942L191.417,32.942L185.831,42.313L183.501,42.313L177.757,32.942L178.763,32.942L178.763,44.14L173.918,44.14Z" style="fill:rgb(240,223,66);fill-rule:nonzero;"/>
        </g>
        <g transform="matrix(1.10255,0,0,1.24155,-83.9991,-11.0961)">
            <path d="M209.524,43.914C208.147,43.914 206.868,43.684 205.686,43.225C204.521,42.749 203.506,42.087 202.641,41.24C201.776,40.393 201.106,39.405 200.63,38.275C200.153,37.128 199.914,35.875 199.914,34.516C199.914,33.157 200.153,31.913 200.63,30.783C201.106,29.636 201.776,28.639 202.641,27.792C203.524,26.945 204.547,26.292 205.712,25.833C206.877,25.356 208.147,25.118 209.524,25.118C210.83,25.118 212.048,25.33 213.178,25.753C214.325,26.177 215.304,26.821 216.116,27.686L215.269,28.559C214.475,27.783 213.592,27.227 212.622,26.892C211.668,26.539 210.654,26.362 209.577,26.362C208.395,26.362 207.291,26.565 206.268,26.971C205.262,27.377 204.38,27.951 203.621,28.692C202.88,29.433 202.297,30.298 201.874,31.286C201.468,32.274 201.264,33.351 201.264,34.516C201.264,35.68 201.468,36.757 201.874,37.746C202.297,38.734 202.88,39.599 203.621,40.34C204.38,41.081 205.262,41.655 206.268,42.061C207.291,42.467 208.395,42.669 209.577,42.669C210.654,42.669 211.668,42.502 212.622,42.167C213.592,41.813 214.475,41.24 215.269,40.446L216.116,41.319C215.304,42.184 214.325,42.837 213.178,43.278C212.048,43.702 210.83,43.914 209.524,43.914Z" style="fill:white;fill-rule:nonzero;"/>
        </g>
        <g transform="matrix(1.10255,0,0,1.24155,-83.9991,-11.0961)">
            <rect x="220.215" y="24.138" width="1.324" height="19.643" style="fill:white;"/>
        </g>
        <g transform="matrix(1.10255,0,0,1.24155,-83.9991,-11.0961)">
            <path d="M235.826,43.781L235.826,40.631L235.774,40.155L235.774,34.966C235.774,33.678 235.42,32.698 234.714,32.027C234.026,31.357 233.012,31.021 231.67,31.021C230.717,31.021 229.826,31.189 228.997,31.524C228.185,31.842 227.488,32.257 226.905,32.769L226.243,31.816C226.932,31.198 227.761,30.721 228.732,30.386C229.703,30.033 230.717,29.857 231.776,29.857C233.488,29.857 234.803,30.289 235.72,31.154C236.638,32.019 237.097,33.307 237.097,35.019L237.097,43.781L235.826,43.781ZM230.849,43.887C229.826,43.887 228.935,43.728 228.176,43.411C227.435,43.075 226.861,42.608 226.455,42.007C226.067,41.407 225.873,40.719 225.873,39.943C225.873,39.237 226.032,38.601 226.349,38.037C226.685,37.454 227.232,36.986 227.991,36.634C228.749,36.263 229.764,36.078 231.035,36.078L236.118,36.078L236.118,37.11L231.061,37.11C229.632,37.11 228.626,37.375 228.043,37.904C227.479,38.434 227.196,39.096 227.196,39.89C227.196,40.772 227.532,41.478 228.203,42.007C228.873,42.537 229.817,42.802 231.035,42.802C232.2,42.802 233.179,42.537 233.974,42.007C234.786,41.478 235.386,40.711 235.774,39.705L236.144,40.605C235.774,41.611 235.138,42.413 234.238,43.014C233.356,43.596 232.226,43.887 230.849,43.887Z" style="fill:white;fill-rule:nonzero;"/>
        </g>
        <g transform="matrix(1.10255,0,0,1.24155,-83.9991,-11.0961)">
            <path d="M242.551,43.781L242.551,29.963L243.822,29.963L243.822,33.748L243.689,33.324C244.078,32.213 244.73,31.357 245.648,30.757C246.566,30.157 247.713,29.857 249.089,29.857L249.089,31.154L248.931,31.154C248.878,31.136 248.825,31.127 248.772,31.127C247.237,31.127 246.036,31.613 245.172,32.583C244.307,33.536 243.874,34.869 243.874,36.581L243.874,43.781L242.551,43.781Z" style="fill:white;fill-rule:nonzero;"/>
        </g>
        <g transform="matrix(1.10255,0,0,1.24155,-83.9991,-11.0961)">
            <path d="M252.737,43.781L252.737,29.963L254.06,29.963L254.06,43.781L252.737,43.781ZM253.398,26.601C253.098,26.601 252.842,26.495 252.631,26.283C252.419,26.071 252.313,25.824 252.313,25.542C252.313,25.242 252.419,24.986 252.631,24.774C252.842,24.562 253.098,24.456 253.398,24.456C253.716,24.456 253.972,24.562 254.166,24.774C254.378,24.968 254.484,25.215 254.484,25.515C254.484,25.815 254.378,26.071 254.166,26.283C253.972,26.495 253.716,26.601 253.398,26.601Z" style="fill:white;fill-rule:nonzero;"/>
        </g>
        <g transform="matrix(1.10255,0,0,1.24155,-83.9991,-11.0961)">
            <path d="M263.663,43.887C262.446,43.887 261.51,43.552 260.857,42.881C260.222,42.211 259.904,41.293 259.904,40.128L259.904,26.945L261.228,26.945L261.228,39.996C261.228,40.878 261.448,41.557 261.89,42.034C262.33,42.511 262.966,42.749 263.796,42.749C264.66,42.749 265.375,42.493 265.94,41.981L266.496,42.908C266.143,43.243 265.71,43.49 265.198,43.649C264.704,43.808 264.192,43.887 263.663,43.887ZM257.363,31.101L257.363,29.963L265.622,29.963L265.622,31.101L257.363,31.101Z" style="fill:white;fill-rule:nonzero;"/>
        </g>
        <g transform="matrix(1.10255,0,0,1.24155,-83.9991,-11.0961)">
            <path d="M269.611,49.023C268.975,49.023 268.375,48.917 267.811,48.705C267.263,48.493 266.796,48.185 266.407,47.779L267.069,46.772C267.422,47.143 267.801,47.417 268.207,47.593C268.631,47.77 269.108,47.858 269.637,47.858C270.272,47.858 270.828,47.682 271.305,47.328C271.799,46.976 272.258,46.332 272.682,45.396L273.634,43.278L273.82,43.04L279.67,29.963L281.02,29.963L273.926,45.661C273.555,46.508 273.149,47.17 272.708,47.646C272.284,48.14 271.817,48.493 271.305,48.705C270.793,48.917 270.228,49.023 269.611,49.023ZM273.608,44.126L267.201,29.963L268.605,29.963L274.429,42.961L273.608,44.126Z" style="fill:white;fill-rule:nonzero;"/>
        </g>
    </g>
</svg>
