<?xml version="1.0" encoding="UTF-8" standalone="no"?>
<!DOCTYPE svg PUBLIC "-//W3C//DTD SVG 1.1//EN" "http://www.w3.org/Graphics/SVG/1.1/DTD/svg11.dtd">
<svg width="100%" height="100%" viewBox="0 0 127 94" version="1.1" xmlns="http://www.w3.org/2000/svg" xmlns:xlink="http://www.w3.org/1999/xlink" xml:space="preserve" xmlns:serif="http://www.serif.com/" style="fill-rule:evenodd;clip-rule:evenodd;stroke-linejoin:round;stroke-miterlimit:2;">
    <g id="Artboard1" transform="matrix(1,0,0,1.04356,-7.0977,-9.13143)">
        <rect x="7.098" y="8.75" width="126.891" height="89.689" style="fill:none;"/>
        <g transform="matrix(1,0,0,0.958261,0.0976963,1.08421)">
            <path d="M72.92,60.969L76.932,57.883L71.068,58.5L68.29,60.043C68.29,60.043 67.283,60.411 67.056,60.969C66.768,61.675 67.673,62.821 67.673,62.821L81.561,72.079L81.869,72.696C81.869,72.696 81.703,73.301 81.869,73.622C82.029,73.931 82.357,73.712 82.67,73.377L82.486,73.622C82.486,73.622 82.605,74.049 82.795,74.239C83.398,74.842 84.338,72.696 84.338,72.696C84.338,72.696 83.513,74.68 84.338,74.857C84.865,74.97 85.573,74.239 85.573,74.239L87.116,72.696L86.498,71.153L82.795,68.067L72.92,60.969Z" style="fill:rgb(89,96,104);fill-rule:nonzero;"/>
        </g>
        <g transform="matrix(1,0,0,0.958261,0.0976963,1.08421)">
            <path d="M49.734,69.25L53.746,66.164L47.883,66.781L45.105,68.324C45.105,68.324 44.098,68.692 43.871,69.25C43.583,69.956 44.488,71.102 44.488,71.102L58.375,80.36L58.684,80.977C58.684,80.977 58.518,81.582 58.684,81.903C58.843,82.211 59.172,81.992 59.485,81.658L59.301,81.903C59.301,81.903 59.419,82.33 59.61,82.52C60.212,83.123 61.153,80.977 61.153,80.977C61.153,80.977 60.328,82.961 61.153,83.137C61.68,83.25 62.387,82.52 62.387,82.52L63.93,80.977L63.313,79.434L59.61,76.348L49.734,69.25Z" style="fill:rgb(89,96,104);fill-rule:nonzero;"/>
        </g>
        <g transform="matrix(1,0,0,0.958261,0.0976963,1.08421)">
            <path d="M47.648,81.245L47.965,86.11L50.398,85.951L50.239,83.519C50.398,85.951 50.398,85.951 50.398,85.951L50.462,85.946C50.502,85.944 50.56,85.94 50.634,85.934C50.784,85.923 51.001,85.907 51.28,85.884C51.838,85.838 52.641,85.766 53.636,85.663C55.625,85.457 58.388,85.123 61.488,84.614C67.612,83.609 75.335,81.876 80.948,78.934C83.523,77.585 85.331,75.78 86.79,74.324C87.039,74.077 87.277,73.839 87.507,73.616C89.12,72.048 90.503,70.954 92.713,70.488C95.762,69.845 98.119,70.357 100.586,71.462C101.867,72.035 103.155,72.759 104.619,73.597C104.727,73.658 104.836,73.721 104.946,73.784C106.297,74.557 107.782,75.407 109.41,76.213L111.595,77.294L113.756,72.924L111.571,71.844C110.081,71.106 108.718,70.326 107.349,69.542C107.246,69.483 107.143,69.424 107.039,69.365C105.593,68.538 104.108,67.698 102.578,67.013C99.422,65.599 96.003,64.812 91.708,65.718C88.138,66.47 85.94,68.341 84.11,70.119C83.816,70.404 83.536,70.682 83.263,70.953C81.803,72.4 80.556,73.636 78.685,74.616C73.805,77.174 66.739,78.812 60.698,79.804C57.715,80.294 55.051,80.615 53.134,80.814C52.176,80.913 51.406,80.982 50.879,81.025C50.616,81.047 50.413,81.062 50.277,81.072C50.21,81.077 50.159,81.081 50.126,81.083L50.09,81.086L50.081,81.086L47.648,81.245Z" style="fill:rgb(135,113,113);"/>
        </g>
        <g transform="matrix(1,0,0,0.958261,0.0976963,1.08421)">
            <path d="M85.264,31.96C85.264,31.182 88.536,31.712 89.578,31.901C92.198,32.375 94.912,33.621 97.3,34.738C98.423,35.263 100.163,36.467 101.053,37.104C101.887,37.699 102.857,38.098 103.812,38.49C104.113,38.614 104.411,38.736 104.704,38.864C105.909,39.391 106.913,40.289 107.572,41.426L109.686,45.079C110.198,45.962 110.533,46.959 110.862,47.942C110.988,48.315 111.113,48.687 111.246,49.049C111.78,50.5 111.48,52.126 110.462,53.29C107.545,56.623 102.574,57.076 98.184,57.475C97.054,57.578 95.964,57.677 94.957,57.821C93.924,57.969 92.853,57.938 91.794,57.908C91.361,57.896 90.93,57.883 90.504,57.883L77.679,57.883C76.241,57.883 74.775,58.143 73.329,58.399C72.698,58.511 72.07,58.622 71.45,58.71C70.35,58.867 69.285,59.315 68.243,59.752C67.885,59.902 67.529,60.051 67.176,60.187C65.403,60.869 63.45,61.227 61.529,61.579C60.666,61.737 59.809,61.894 58.978,62.079C55.55,62.84 52.406,64.698 49.288,66.541C47.575,67.554 45.87,68.561 44.129,69.38C43.148,69.842 42.435,70.609 41.72,71.377C41.093,72.051 40.465,72.726 39.655,73.194L34.652,76.091C32.946,77.114 31.473,78.267 30.897,80.286C30.558,81.469 30.429,82.655 30.732,83.867L31.566,87.201C32.208,88.806 32.842,90.316 34.328,91.345L34.728,91.622C34.743,91.639 34.761,91.655 34.78,91.669L35.543,92.22C36.293,92.762 37.16,93.155 38.1,93.274C38.586,93.335 39.137,93.385 39.598,93.373C41.473,93.325 42.819,93.258 44.403,92.078C44.75,91.819 45.096,91.454 45.39,91.104C46.096,90.265 46.379,89.187 46.379,88.131C46.379,87.269 46.178,86.418 45.793,85.647L45.364,84.79C45.186,84.432 44.964,84.098 44.704,83.795C43.706,82.63 42.219,82.002 40.688,82.098L40.253,82.125C38.781,82.217 37.19,82.852 36.532,84.296C36.487,84.393 36.443,84.487 36.399,84.58C36.05,85.327 35.751,85.965 35.89,86.936C35.962,87.441 36.084,87.875 36.303,88.265C36.523,88.657 36.829,88.988 37.244,89.3C37.623,89.584 37.98,89.758 38.367,89.858C38.747,89.956 39.143,89.979 39.59,89.979C40.034,89.979 40.578,89.962 41.104,89.873C41.624,89.784 42.161,89.618 42.562,89.292C43.12,88.84 43.382,88.265 43.414,87.647C43.446,87.041 43.256,86.412 42.95,85.824C42.73,85.402 42.451,85.069 42.095,84.832C41.739,84.594 41.324,84.466 40.851,84.425C40.236,84.372 39.733,84.531 39.333,84.785C39.047,84.968 38.861,85.214 38.782,85.497C38.703,85.775 38.735,86.063 38.836,86.324C39.034,86.84 39.514,87.295 40.109,87.494L40.305,86.908C39.871,86.764 39.539,86.433 39.412,86.103C39.349,85.941 39.34,85.79 39.376,85.664C39.41,85.541 39.494,85.415 39.665,85.306C39.958,85.119 40.327,84.999 40.798,85.04C41.19,85.074 41.5,85.177 41.753,85.345C42.006,85.514 42.22,85.76 42.402,86.109C42.677,86.638 42.822,87.155 42.798,87.615C42.775,88.063 42.592,88.473 42.173,88.813C41.893,89.04 41.479,89.183 41,89.264C40.527,89.345 40.023,89.361 39.59,89.361C39.159,89.361 38.825,89.339 38.521,89.26C38.222,89.183 37.937,89.048 37.615,88.806C37.253,88.534 37.011,88.266 36.842,87.964C36.672,87.66 36.566,87.306 36.501,86.849C36.389,86.068 36.61,85.594 36.96,84.84C37.003,84.748 37.047,84.653 37.093,84.552C37.616,83.407 38.925,82.826 40.292,82.741L40.727,82.714C42.064,82.63 43.363,83.179 44.235,84.197C44.462,84.462 44.656,84.754 44.812,85.066L45.241,85.923C45.584,86.608 45.762,87.364 45.762,88.131C45.762,89.084 45.506,90.008 44.918,90.707C44.635,91.044 44.325,91.366 44.035,91.583C42.618,92.638 41.447,92.708 39.582,92.756C39.168,92.767 38.654,92.722 38.177,92.662C37.36,92.559 36.589,92.214 35.904,91.72L35.141,91.169C35.124,91.156 35.106,91.145 35.086,91.137C34.359,90.239 33.807,89.241 33.289,88.032C32.966,87.28 32.8,86.471 32.8,85.653C32.8,84.259 33.283,82.908 34.165,81.83C35.06,80.736 35.97,79.868 37.198,79.131C38.453,78.378 39.797,78.251 41.219,78.251C42.628,78.251 43.809,78.818 45.033,79.43C46.402,80.114 47.245,81.282 48.108,82.478C48.184,82.584 48.26,82.689 48.336,82.794C48.899,83.568 49.215,84.466 49.529,85.36C49.589,85.53 49.649,85.701 49.711,85.871C50.101,86.943 50.093,88.057 50.085,89.177C50.084,89.337 50.082,89.497 50.082,89.657C50.082,90.678 49.829,91.684 49.345,92.583C48.59,93.985 47.824,95.281 46.388,96.102C42.056,98.577 38.771,99.265 33.967,98.001C32.473,97.608 31.204,96.592 29.984,95.615C29.648,95.346 29.316,95.08 28.983,94.831C28.246,94.278 27.641,93.566 27.215,92.748C26.924,92.191 26.59,91.621 26.25,91.039C25.282,89.386 24.261,87.641 24.014,85.826C23.936,85.257 23.831,84.673 23.724,84.079C23.435,82.481 23.135,80.823 23.347,79.269C23.433,78.64 23.496,77.994 23.56,77.343C23.711,75.805 23.865,74.239 24.321,72.805L26.32,66.524L28.425,60.21C35.805,36.939 45.991,30.436 62.194,31.024C65.96,31.161 69.19,33.062 72.461,34.986C74.382,36.116 76.316,37.255 78.382,38.049C79.055,38.308 79.77,38.441 80.492,38.441L80.708,38.441C81.669,38.441 82.61,38.171 83.424,37.662L83.476,37.629C84.242,37.151 84.86,36.471 85.264,35.663L85.264,31.96Z" style="fill:url(#_Linear1);"/>
        </g>
        <g transform="matrix(1,0,0,0.958261,0.0976963,1.08421)">
            <path d="M67.066,54.907L77.358,53.587C77.484,53.571 77.608,53.538 77.726,53.487L79.042,52.923C79.46,52.744 79.762,52.371 79.851,51.926L79.963,51.365C79.999,51.186 79.999,51.002 79.963,50.824L79.874,50.376C79.773,49.869 79.397,49.462 78.9,49.32L77.858,49.022C77.654,48.964 77.44,48.954 77.232,48.991L70.882,50.146C70.8,50.161 70.718,50.168 70.635,50.168L64.472,50.168C64.344,50.168 64.216,50.186 64.093,50.221L62.527,50.669C62.261,50.745 62.023,50.899 61.846,51.112L60.678,52.514C60.61,52.596 60.551,52.685 60.504,52.78L59.92,53.948C59.747,54.293 59.727,54.694 59.864,55.054L66.297,72.014C66.39,72.258 66.55,72.471 66.759,72.628L67.338,73.062C67.549,73.221 67.673,73.469 67.673,73.733C67.673,73.863 67.704,73.992 67.762,74.108L70.174,78.932C70.35,79.285 70.367,79.695 70.221,80.061L69.856,80.972C69.841,81.01 69.821,81.046 69.797,81.078C69.524,81.441 69.883,81.939 70.313,81.795L70.632,81.689C70.716,81.661 70.792,81.614 70.854,81.552L71.71,80.696C71.895,80.51 72.024,80.276 72.081,80.02L72.234,79.332L72.474,80.103L72.063,81.952C72.022,82.135 72.111,82.322 72.279,82.406C72.467,82.5 72.696,82.436 72.808,82.257L73.887,80.531C74.059,80.255 74.129,79.927 74.083,79.605L73.845,77.943L72.685,73.591C72.637,73.41 72.642,73.219 72.702,73.042L72.814,72.704C72.877,72.516 73.054,72.388 73.253,72.388C73.554,72.388 73.775,72.105 73.702,71.813L73.608,71.44C73.562,71.256 73.449,71.095 73.291,70.99L72.033,70.151C71.806,70 71.54,69.919 71.267,69.919L71.097,69.919C70.687,69.919 70.299,69.738 70.037,69.423L69.102,68.301C68.974,68.147 68.881,67.967 68.829,67.774L67.673,63.438L65.906,56.621C65.697,55.817 66.242,55.013 67.066,54.907Z" style="fill:rgb(155,161,166);fill-rule:nonzero;"/>
        </g>
        <g transform="matrix(1,0,0,0.958261,0.0976963,1.08421)">
            <path d="M83.402,22.088L83.402,16.926C83.402,15.698 88.565,16.535 90.209,16.833C94.342,17.581 98.625,19.546 102.391,21.308C104.163,22.137 106.908,24.038 108.313,25.042C109.628,25.981 111.158,26.61 112.666,27.229C113.14,27.423 113.611,27.617 114.073,27.819C115.973,28.65 117.558,30.067 118.597,31.862L121.934,37.624C122.74,39.017 123.268,40.591 123.789,42.14C123.987,42.73 124.184,43.316 124.394,43.888C125.237,46.176 124.762,48.743 123.157,50.578C118.555,55.837 110.712,56.551 103.786,57.181C102.597,57.29 101.436,57.395 100.323,57.521C98.983,56.588 97.419,55.94 95.712,55.673C91.995,55.092 88.799,52.674 87.454,49.161C86.855,47.596 86.263,45.936 85.854,44.517C83.417,36.063 83.419,22.12 83.419,22.12L83.402,22.088Z" style="fill:url(#_Linear2);"/>
        </g>
        <g transform="matrix(1,0,0,0.958261,0.0976963,1.08421)">
            <path d="M101.412,56.823L90.546,53.503C88.913,53.004 87.603,51.776 86.998,50.179L82.704,38.829C82.348,37.889 81.743,37.064 80.953,36.443L79.972,35.673C77.881,34.03 77.259,31.13 78.493,28.774L79.414,27.016C80.314,25.297 80.024,23.197 78.692,21.786C76.431,19.393 77.387,15.464 80.495,14.376L81.184,14.135C81.828,13.909 82.51,13.817 83.189,13.884C87.853,14.341 107.12,16.744 114.868,25.8C117.404,28.763 119.853,33.779 120.926,36.119C121.307,36.951 121.867,37.692 122.582,38.264L123.562,39.048C124.871,40.095 125.633,41.68 125.633,43.356L125.633,45.746C125.633,47.036 125.181,48.286 124.354,49.278L122.656,51.315C121.901,52.222 120.874,52.863 119.728,53.143L104.334,56.906C103.37,57.141 102.361,57.113 101.412,56.823Z" style="fill:rgb(169,176,183);fill-rule:nonzero;"/>
        </g>
        <g transform="matrix(1,0,0,0.958261,0.0976963,1.08421)">
            <path d="M101.59,49.062C102.044,49.317 102.555,49.501 103.081,49.49C103.352,49.484 103.651,49.481 103.956,49.479C105.554,49.47 107.157,49.396 108.752,49.209L109.308,49.143C111.445,48.892 113.6,48.833 115.747,48.967L118.269,49.125L123.689,50.209L123.831,49.497L118.363,48.403L115.792,48.243C113.602,48.106 111.403,48.166 109.223,48.422L108.667,48.488C107.106,48.671 105.531,48.744 103.952,48.753C103.645,48.755 103.341,48.758 103.066,48.764C102.716,48.772 102.335,48.648 101.944,48.429C101.556,48.212 101.18,47.913 100.849,47.605C100.518,47.298 100.239,46.988 100.042,46.755C99.944,46.638 99.867,46.542 99.815,46.474C99.789,46.441 99.769,46.415 99.756,46.398L99.738,46.373L99.444,46.587C99.151,46.8 99.151,46.8 99.151,46.8L99.176,46.833C99.191,46.854 99.213,46.883 99.242,46.92C99.299,46.994 99.382,47.098 99.487,47.223C99.697,47.471 99.997,47.804 100.354,48.137C100.711,48.468 101.134,48.807 101.59,49.062Z" style="fill:rgb(89,96,104);"/>
        </g>
        <g transform="matrix(1,0,0,0.958261,0.0976963,1.08421)">
            <circle cx="104.64" cy="34.25" r="11.03" style="fill:rgb(155,161,166);"/>
        </g>
        <g transform="matrix(1,0,0,0.958261,0.0976963,1.08421)">
            <circle cx="104.641" cy="34.25" r="9.192" style="fill:rgb(249,252,254);"/>
        </g>
        <g transform="matrix(1,0,0,0.958261,0.0976963,1.08421)">
            <ellipse cx="104.64" cy="34.25" rx="7.353" ry="7.353" style="fill:rgb(240,223,66);"/>
        </g>
        <g transform="matrix(1,0,0,0.958261,0.0976963,1.08421)">
            <circle cx="104.641" cy="34.25" r="5.515" style="fill:rgb(34,37,41);"/>
        </g>
        <g transform="matrix(1,0,0,0.958261,0.0976963,1.08421)">
            <circle cx="107.705" cy="29.961" r="1.226" style="fill:white;"/>
        </g>
        <g transform="matrix(0.914054,-0.388664,0.405593,0.875902,-8.8303,47.8269)">
            <ellipse cx="120.116" cy="45.456" rx="0.363" ry="0.726"/>
        </g>
        <g transform="matrix(1,0,0,0.958261,0.0976963,1.08421)">
            <path d="M49.351,59.792L36.329,66.303C36.043,66.446 35.815,66.684 35.686,66.977L34.837,68.886C34.717,69.156 34.687,69.457 34.751,69.746L35.095,71.296C35.203,71.78 35.562,72.169 36.036,72.315L38.637,73.115C39.043,73.241 39.485,73.171 39.834,72.927L42.367,71.154L46.85,67.567C46.947,67.49 47.054,67.425 47.169,67.376L48.89,66.638C49.051,66.57 49.238,66.606 49.362,66.729C49.429,66.796 49.472,66.884 49.483,66.979L49.757,69.164C49.768,69.256 49.77,69.348 49.763,69.441L49.465,73.314L49.182,76.995C49.165,77.212 49.2,77.43 49.284,77.632L50.7,81.029L52.551,84.424L53.786,86.584L54.21,87.221C54.302,87.358 54.505,87.357 54.597,87.219C54.723,87.03 55.02,87.116 55.02,87.344C55.02,87.443 55.084,87.531 55.178,87.562L55.724,87.744C55.851,87.787 55.991,87.729 56.051,87.609L56.117,87.477C56.228,87.255 56.563,87.334 56.563,87.583C56.563,87.713 56.669,87.818 56.799,87.818L57.181,87.818C57.521,87.818 57.798,87.542 57.798,87.201L57.798,84.365C57.798,84.2 57.768,84.036 57.71,83.881L56.034,79.411C55.976,79.257 55.946,79.093 55.946,78.927L55.946,77.141C55.946,77.059 55.939,76.976 55.924,76.895L55.364,73.816C55.341,73.688 55.299,73.563 55.241,73.446L54.479,71.923C54.429,71.822 54.391,71.715 54.366,71.605L53.819,69.141C53.797,69.043 53.786,68.942 53.786,68.842L53.786,61.66C53.786,61.41 53.718,61.165 53.589,60.95L53.067,60.079C52.932,59.854 52.735,59.673 52.501,59.555L52.106,59.358C51.797,59.203 51.442,59.17 51.11,59.265L49.589,59.7C49.507,59.723 49.427,59.754 49.351,59.792Z" style="fill:rgb(155,161,166);fill-rule:nonzero;"/>
        </g>
    </g>
    <defs>
        <linearGradient id="_Linear1" x1="0" y1="0" x2="1" y2="0" gradientUnits="userSpaceOnUse" gradientTransform="matrix(7.02841,55.0931,-55.0931,7.02841,67.6697,30.9884)"><stop offset="0" style="stop-color:rgb(223,226,229);stop-opacity:1"/><stop offset="0.38" style="stop-color:rgb(174,181,188);stop-opacity:1"/><stop offset="0.53" style="stop-color:rgb(174,181,188);stop-opacity:1"/><stop offset="1" style="stop-color:rgb(89,96,104);stop-opacity:1"/></linearGradient>
        <linearGradient id="_Linear2" x1="0" y1="0" x2="1" y2="0" gradientUnits="userSpaceOnUse" gradientTransform="matrix(-124.982,77.2494,-77.2494,-124.982,111.642,45.2222)"><stop offset="0" style="stop-color:rgb(174,181,188);stop-opacity:1"/><stop offset="1" style="stop-color:rgb(89,96,104);stop-opacity:1"/></linearGradient>
    </defs>
</svg>
